<svg width="345" height="177" viewBox="0 0 345 177" fill="none" xmlns="http://www.w3.org/2000/svg">
<g clip-path="url(#clip0_8_1541)">
<mask id="mask0_8_1541" style="mask-type:luminance" maskUnits="userSpaceOnUse" x="0" y="0" width="345" height="177">
<path d="M344.5 0H0.5V177H344.5V0Z" fill="white"/>
</mask>
<g mask="url(#mask0_8_1541)">
<g opacity="0.7">
<path d="M378.56 -8.49316H159.44C151.469 -8.49316 145.007 -2.0312 145.007 5.94004V135.533C145.007 143.504 151.469 149.966 159.44 149.966H378.56C386.531 149.966 392.993 143.504 392.993 135.533V5.94004C392.993 -2.0312 386.531 -8.49316 378.56 -8.49316Z" fill="black" fill-opacity="0.3"/>
<path d="M177.835 27.9199V17.2971H174.559V15.8375H182.668V17.2971H179.441V27.9199H177.835ZM184.022 27.9199V15.6428H185.53V20.8813L185.254 20.7353C185.471 20.1839 185.817 19.7568 186.292 19.4541C186.779 19.1405 187.347 18.9838 187.995 18.9838C188.622 18.9838 189.179 19.1243 189.666 19.4054C190.163 19.6866 190.552 20.0758 190.833 20.5731C191.125 21.0705 191.271 21.6327 191.271 22.2598V27.9199H189.747V22.7464C189.747 22.2598 189.655 21.849 189.471 21.5138C189.298 21.1786 189.055 20.9191 188.741 20.7353C188.428 20.5407 188.066 20.4434 187.655 20.4434C187.255 20.4434 186.892 20.5407 186.568 20.7353C186.244 20.9191 185.99 21.184 185.806 21.53C185.622 21.8652 185.53 22.2706 185.53 22.7464V27.9199H184.022ZM197.452 28.1145C196.608 28.1145 195.857 27.9145 195.197 27.5145C194.538 27.1144 194.019 26.5684 193.64 25.8764C193.262 25.1737 193.073 24.3898 193.073 23.5248C193.073 22.6491 193.257 21.8706 193.624 21.1894C194.003 20.5083 194.511 19.9731 195.149 19.5838C195.797 19.1838 196.522 18.9838 197.322 18.9838C197.971 18.9838 198.544 19.1027 199.041 19.3406C199.549 19.5676 199.976 19.8812 200.322 20.2812C200.679 20.6704 200.949 21.1191 201.133 21.6273C201.328 22.1247 201.425 22.6436 201.425 23.1842C201.425 23.3032 201.414 23.4383 201.393 23.5897C201.382 23.7303 201.366 23.8654 201.344 23.9951H194.176V22.6977H200.468L199.755 23.2816C199.852 22.7193 199.798 22.2166 199.592 21.7733C199.387 21.33 199.084 20.9786 198.684 20.7191C198.284 20.4596 197.83 20.3299 197.322 20.3299C196.814 20.3299 196.349 20.4596 195.927 20.7191C195.506 20.9786 195.176 21.3516 194.938 21.8381C194.711 22.3139 194.619 22.8815 194.662 23.541C194.619 24.179 194.716 24.7412 194.954 25.2277C195.203 25.7035 195.549 26.0765 195.992 26.3468C196.446 26.6063 196.938 26.736 197.468 26.736C198.052 26.736 198.544 26.6009 198.944 26.3306C199.344 26.0603 199.668 25.7143 199.917 25.2926L201.182 25.9413C201.009 26.3414 200.739 26.709 200.371 27.0441C200.014 27.3685 199.587 27.628 199.09 27.8226C198.603 28.0172 198.057 28.1145 197.452 28.1145ZM203.392 27.9199V19.1784H204.868V20.9624L204.657 20.6867C204.873 20.1353 205.219 19.7136 205.695 19.4217C206.17 19.1297 206.706 18.9838 207.3 18.9838C207.981 18.9838 208.592 19.173 209.133 19.5514C209.684 19.9298 210.063 20.4272 210.268 21.0435L209.846 21.0597C210.074 20.3785 210.457 19.8649 210.998 19.519C211.539 19.1622 212.139 18.9838 212.798 18.9838C213.404 18.9838 213.95 19.1243 214.436 19.4054C214.934 19.6866 215.328 20.0758 215.62 20.5731C215.912 21.0705 216.058 21.6327 216.058 22.2598V27.9199H214.533V22.7464C214.533 22.2598 214.447 21.849 214.274 21.5138C214.101 21.1786 213.863 20.9191 213.56 20.7353C213.268 20.5407 212.923 20.4434 212.522 20.4434C212.133 20.4434 211.782 20.5407 211.468 20.7353C211.166 20.9191 210.922 21.184 210.738 21.53C210.565 21.8652 210.479 22.2706 210.479 22.7464V27.9199H208.954V22.7464C208.954 22.2598 208.868 21.849 208.695 21.5138C208.522 21.1786 208.284 20.9191 207.981 20.7353C207.689 20.5407 207.343 20.4434 206.943 20.4434C206.554 20.4434 206.203 20.5407 205.889 20.7353C205.587 20.9191 205.343 21.184 205.159 21.53C204.986 21.8652 204.9 22.2706 204.9 22.7464V27.9199H203.392ZM222.222 28.1145C221.379 28.1145 220.627 27.9145 219.968 27.5145C219.308 27.1144 218.789 26.5684 218.411 25.8764C218.033 25.1737 217.843 24.3898 217.843 23.5248C217.843 22.6491 218.027 21.8706 218.395 21.1894C218.773 20.5083 219.281 19.9731 219.919 19.5838C220.568 19.1838 221.292 18.9838 222.093 18.9838C222.741 18.9838 223.314 19.1027 223.812 19.3406C224.32 19.5676 224.747 19.8812 225.093 20.2812C225.45 20.6704 225.72 21.1191 225.904 21.6273C226.098 22.1247 226.196 22.6436 226.196 23.1842C226.196 23.3032 226.185 23.4383 226.163 23.5897C226.152 23.7303 226.136 23.8654 226.115 23.9951H218.946V22.6977H225.239L224.525 23.2816C224.623 22.7193 224.568 22.2166 224.363 21.7733C224.158 21.33 223.855 20.9786 223.455 20.7191C223.055 20.4596 222.601 20.3299 222.093 20.3299C221.584 20.3299 221.119 20.4596 220.698 20.7191C220.276 20.9786 219.946 21.3516 219.708 21.8381C219.481 22.3139 219.389 22.8815 219.433 23.541C219.389 24.179 219.487 24.7412 219.725 25.2277C219.973 25.7035 220.319 26.0765 220.763 26.3468C221.217 26.6063 221.709 26.736 222.238 26.736C222.822 26.736 223.314 26.6009 223.714 26.3306C224.114 26.0603 224.439 25.7143 224.687 25.2926L225.952 25.9413C225.779 26.3414 225.509 26.709 225.142 27.0441C224.785 27.3685 224.358 27.628 223.86 27.8226C223.374 28.0172 222.828 28.1145 222.222 28.1145Z" fill="#ADADAD"/>
<mask id="mask1_8_1541" style="mask-type:luminance" maskUnits="userSpaceOnUse" x="174" y="47" width="89" height="84">
<path d="M254.729 47.1382H182.428C177.984 47.1382 174.381 50.7408 174.381 55.1849V122.506C174.381 126.951 177.984 130.553 182.428 130.553H254.729C259.173 130.553 262.776 126.951 262.776 122.506V55.1849C262.776 50.7408 259.173 47.1382 254.729 47.1382Z" fill="white"/>
</mask>
<g mask="url(#mask1_8_1541)">
<path d="M189.795 68.8767C189.926 68.8767 190.054 68.9245 190.153 69.0112C190.252 69.0978 190.317 69.2176 190.334 69.3481L190.339 69.4222V70.5119C190.339 70.6499 190.287 70.7826 190.192 70.8833C190.098 70.9841 189.969 71.0453 189.831 71.0546C189.694 71.0639 189.558 71.0206 189.451 70.9335C189.344 70.8464 189.274 70.7219 189.255 70.5853L189.25 70.5119V69.4222C189.25 69.2777 189.307 69.1391 189.409 69.037C189.511 68.9348 189.65 68.8767 189.795 68.8767ZM194.169 67.3715L194.939 68.1415C194.991 68.1917 195.033 68.2518 195.061 68.3183C195.09 68.3848 195.105 68.4562 195.106 68.5286C195.106 68.6009 195.093 68.6727 195.065 68.7397C195.038 68.8066 194.997 68.8675 194.946 68.9186C194.895 68.9698 194.834 69.0103 194.767 69.0377C194.7 69.0652 194.629 69.079 194.556 69.0784C194.484 69.0778 194.413 69.0628 194.346 69.0343C194.28 69.0058 194.219 68.9643 194.169 68.9123L193.399 68.1422C193.3 68.0395 193.245 67.9019 193.246 67.7591C193.247 67.6162 193.304 67.4795 193.405 67.3785C193.506 67.2774 193.643 67.2201 193.786 67.2187C193.929 67.2174 194.066 67.2723 194.169 67.3715ZM186.191 67.3715C186.293 67.4736 186.35 67.6121 186.35 67.7565C186.35 67.9009 186.293 68.0394 186.191 68.1415L185.42 68.913C185.317 69.0092 185.18 69.0616 185.039 69.0591C184.898 69.0566 184.763 68.9995 184.663 68.8996C184.563 68.7998 184.506 68.6651 184.504 68.524C184.501 68.3829 184.554 68.2462 184.65 68.143L185.42 67.3722C185.522 67.2702 185.661 67.2129 185.805 67.2129C185.949 67.2129 186.088 67.2702 186.19 67.3722L186.191 67.3715ZM189.797 59.7708C190.862 59.7708 191.883 60.1936 192.635 60.9463C193.388 61.699 193.811 62.7199 193.811 63.7843C193.811 64.8488 193.388 65.8697 192.635 66.6224C191.883 67.3751 190.862 67.7979 189.797 67.7979C188.733 67.7979 187.712 67.3751 186.959 66.6224C186.207 65.8697 185.784 64.8488 185.784 63.7843C185.784 62.7199 186.207 61.699 186.959 60.9463C187.712 60.1936 188.733 59.7708 189.797 59.7708ZM189.797 60.8604C189.413 60.8604 189.033 60.9361 188.678 61.083C188.324 61.2299 188.001 61.4453 187.73 61.7168C187.458 61.9883 187.243 62.3107 187.096 62.6654C186.949 63.0201 186.874 63.4004 186.874 63.7843C186.874 64.1683 186.949 64.5485 187.096 64.9033C187.243 65.258 187.458 65.5803 187.73 65.8519C188.001 66.1234 188.324 66.3387 188.678 66.4857C189.033 66.6326 189.413 66.7083 189.797 66.7083C190.573 66.7083 191.317 66.4002 191.865 65.8519C192.413 65.3035 192.721 64.5598 192.721 63.7843C192.721 63.0089 192.413 62.2652 191.865 61.7168C191.317 61.1685 190.573 60.8604 189.797 60.8604ZM196.517 63.2526C196.655 63.2526 196.788 63.3051 196.889 63.3993C196.99 63.4935 197.051 63.6226 197.06 63.7603C197.07 63.898 197.027 64.0342 196.939 64.1412C196.852 64.2483 196.728 64.3183 196.591 64.3372L196.517 64.3422H195.427C195.289 64.3422 195.156 64.2898 195.056 64.1955C194.955 64.1013 194.893 63.9723 194.884 63.8345C194.875 63.6968 194.918 63.5607 195.005 63.4536C195.092 63.3465 195.216 63.2765 195.353 63.2577L195.427 63.2526H196.517ZM184.168 63.2315C184.307 63.2301 184.441 63.2819 184.543 63.3763C184.645 63.4707 184.707 63.6005 184.717 63.7392C184.726 63.8779 184.682 64.015 184.594 64.1224C184.506 64.2298 184.38 64.2993 184.242 64.3168L184.168 64.3212H183.078C182.94 64.3211 182.807 64.2687 182.706 64.1745C182.605 64.0802 182.544 63.9512 182.534 63.8135C182.525 63.6758 182.568 63.5396 182.655 63.4325C182.743 63.3254 182.867 63.2554 183.004 63.2366L183.078 63.2315H184.168ZM185.359 58.6041L185.42 58.6564L186.19 59.4264C186.288 59.5235 186.345 59.654 186.35 59.7917C186.356 59.9294 186.309 60.0639 186.219 60.1684C186.129 60.2728 186.003 60.3393 185.866 60.3545C185.729 60.3696 185.591 60.3324 185.481 60.2502L185.42 60.1972L184.65 59.4272C184.552 59.3301 184.495 59.1996 184.489 59.0619C184.484 58.9242 184.531 58.7897 184.621 58.6852C184.711 58.5808 184.837 58.5143 184.974 58.4991C185.111 58.4839 185.248 58.5219 185.359 58.6041ZM194.939 58.6564C195.032 58.7487 195.088 58.8711 195.098 59.0014C195.107 59.1317 195.07 59.2611 194.992 59.3661L194.939 59.4272L194.169 60.1972C194.072 60.2938 193.942 60.3501 193.805 60.3549C193.668 60.3597 193.534 60.3127 193.43 60.2232C193.326 60.1337 193.26 60.0083 193.244 59.8721C193.229 59.7358 193.265 59.5988 193.346 59.4882L193.398 59.4272L194.168 58.6564C194.219 58.6058 194.279 58.5656 194.345 58.5382C194.411 58.5108 194.482 58.4967 194.554 58.4967C194.625 58.4967 194.696 58.5108 194.762 58.5382C194.828 58.5656 194.889 58.6058 194.939 58.6564ZM189.797 56.5127C189.929 56.5127 190.056 56.5604 190.156 56.6469C190.255 56.7334 190.319 56.853 190.337 56.9834L190.342 57.0575V58.1472C190.342 58.2852 190.289 58.4179 190.195 58.5186C190.101 58.6194 189.972 58.6806 189.834 58.6899C189.697 58.6992 189.56 58.6559 189.453 58.5688C189.346 58.4817 189.276 58.3572 189.258 58.2205L189.253 58.1464V57.0568C189.253 56.9123 189.31 56.7737 189.412 56.6715C189.514 56.5694 189.653 56.5127 189.797 56.5127Z" fill="#EAEAEA"/>
<path d="M204.088 68.2858V59.5077H205.679V66.9529H209.545V68.2858H204.088ZM210.856 68.2858V61.7022H212.408V68.2858H210.856ZM211.637 60.7677C211.391 60.7677 211.179 60.6863 211.002 60.5234C210.825 60.3577 210.736 60.1592 210.736 59.9277C210.736 59.6934 210.825 59.4948 211.002 59.3319C211.179 59.1662 211.391 59.0833 211.637 59.0833C211.885 59.0833 212.097 59.1662 212.271 59.3319C212.448 59.4948 212.537 59.6934 212.537 59.9277C212.537 60.1592 212.448 60.3577 212.271 60.5234C212.097 60.6863 211.885 60.7677 211.637 60.7677ZM216.867 70.8918C216.31 70.8918 215.831 70.8162 215.431 70.6648C215.031 70.5162 214.709 70.316 214.467 70.0646C214.224 69.8131 214.055 69.5345 213.961 69.2288L215.358 68.8901C215.421 69.0187 215.512 69.1459 215.632 69.2716C215.752 69.4002 215.914 69.5059 216.117 69.5888C216.322 69.6745 216.581 69.7174 216.893 69.7174C217.333 69.7174 217.697 69.6103 217.986 69.396C218.274 69.1846 218.418 68.8359 218.418 68.3501V67.1028H218.341C218.261 67.2628 218.144 67.4272 217.99 67.5958C217.838 67.7644 217.637 67.9058 217.385 68.0201C217.137 68.1344 216.824 68.1915 216.447 68.1915C215.941 68.1915 215.482 68.073 215.071 67.8358C214.662 67.5958 214.337 67.2385 214.094 66.7642C213.854 66.287 213.734 65.6899 213.734 64.9726C213.734 64.2497 213.854 63.6395 214.094 63.1423C214.337 62.6422 214.664 62.2637 215.075 62.0065C215.487 61.7465 215.945 61.6165 216.451 61.6165C216.837 61.6165 217.154 61.6822 217.403 61.8137C217.654 61.9423 217.854 62.0979 218.003 62.2808C218.151 62.4608 218.264 62.6309 218.341 62.7909H218.427V61.7022H219.957V68.3929C219.957 68.9559 219.823 69.4216 219.554 69.7903C219.286 70.1589 218.919 70.4346 218.453 70.6175C217.987 70.8005 217.458 70.8918 216.867 70.8918ZM216.88 66.9742C217.208 66.9742 217.488 66.8942 217.72 66.7342C217.951 66.5741 218.127 66.3441 218.247 66.0441C218.367 65.744 218.427 65.3841 218.427 64.9641C218.427 64.5497 218.367 64.1868 218.247 63.8753C218.13 63.5639 217.956 63.3224 217.724 63.151C217.495 62.9767 217.214 62.8895 216.88 62.8895C216.534 62.8895 216.245 62.9795 216.014 63.1595C215.782 63.3396 215.608 63.5867 215.491 63.9011C215.374 64.2125 215.315 64.5669 215.315 64.9641C215.315 65.367 215.374 65.7198 215.491 66.0227C215.611 66.3227 215.787 66.5571 216.018 66.7257C216.252 66.8914 216.54 66.9742 216.88 66.9742ZM223.099 64.4282V68.2858H221.547V59.5077H223.065V62.8209H223.142C223.296 62.4495 223.535 62.1565 223.858 61.9422C224.183 61.725 224.598 61.6165 225.101 61.6165C225.558 61.6165 225.957 61.7122 226.297 61.9037C226.637 62.0951 226.899 62.3752 227.085 62.7438C227.274 63.1124 227.368 63.5625 227.368 64.0939V68.2858H225.817V64.334C225.817 63.891 225.702 63.5466 225.474 63.3009C225.248 63.0523 224.931 62.9281 224.522 62.9281C224.248 62.9281 224.002 62.9881 223.785 63.1081C223.571 63.2253 223.402 63.3952 223.279 63.6181C223.159 63.841 223.099 64.111 223.099 64.4282ZM232.237 61.7022V62.9024H228.453V61.7022H232.237ZM229.387 60.1249H230.939V66.3056C230.939 66.5142 230.97 66.6742 231.033 66.7856C231.099 66.8942 231.184 66.9685 231.29 67.0085C231.396 67.0485 231.513 67.0686 231.642 67.0686C231.739 67.0686 231.827 67.0615 231.907 67.0472C231.99 67.0329 232.053 67.0199 232.096 67.0085L232.357 68.2216C232.274 68.2502 232.156 68.2816 232.002 68.3159C231.85 68.3502 231.664 68.3702 231.444 68.3759C231.056 68.3873 230.706 68.3288 230.394 68.2002C230.083 68.0687 229.836 67.8657 229.653 67.5914C229.473 67.3172 229.384 66.9742 229.387 66.5627V60.1249Z" fill="#EAEAEA"/>
<path d="M271.168 83.3502H186.241C183.279 83.3502 180.877 85.752 180.877 88.7147V129.222C180.877 132.185 183.279 134.587 186.241 134.587H271.168C274.13 134.587 276.532 132.185 276.532 129.222V88.7147C276.532 85.752 274.13 83.3502 271.168 83.3502Z" fill="#838383"/>
<mask id="mask2_8_1541" style="mask-type:luminance" maskUnits="userSpaceOnUse" x="185" y="89" width="52" height="48">
<path d="M232.293 89.1277H189.294C187.072 89.1277 185.271 90.929 185.271 93.151V132.414C185.271 134.636 187.072 136.438 189.294 136.438H232.293C234.515 136.438 236.316 134.636 236.316 132.414V93.151C236.316 90.929 234.515 89.1277 232.293 89.1277Z" fill="white"/>
</mask>
<g mask="url(#mask2_8_1541)">
<path d="M232.293 89.1277H189.294C187.072 89.1277 185.271 90.929 185.271 93.151V132.414C185.271 134.636 187.072 136.438 189.294 136.438H232.293C234.515 136.438 236.316 134.636 236.316 132.414V93.151C236.316 90.929 234.515 89.1277 232.293 89.1277Z" fill="white" fill-opacity="0.5"/>
</g>
<mask id="mask3_8_1541" style="mask-type:luminance" maskUnits="userSpaceOnUse" x="240" y="89" width="28" height="15">
<path d="M265.265 89.4805H243.18C241.699 89.4805 240.498 90.6813 240.498 92.1627V100.939C240.498 102.42 241.699 103.621 243.18 103.621H265.265C266.746 103.621 267.947 102.42 267.947 100.939V92.1627C267.947 90.6813 266.746 89.4805 265.265 89.4805Z" fill="white"/>
</mask>
<g mask="url(#mask3_8_1541)">
<path d="M265.265 89.4805H243.18C241.699 89.4805 240.498 90.6813 240.498 92.1627V100.939C240.498 102.42 241.699 103.621 243.18 103.621H265.265C266.746 103.621 267.947 102.42 267.947 100.939V92.1627C267.947 90.6813 266.746 89.4805 265.265 89.4805Z" fill="white" fill-opacity="0.5"/>
</g>
<mask id="mask4_8_1541" style="mask-type:luminance" maskUnits="userSpaceOnUse" x="240" y="107" width="28" height="15">
<path d="M264.82 107.003H242.735C241.254 107.003 240.053 108.204 240.053 109.685V118.461C240.053 119.942 241.254 121.143 242.735 121.143H264.82C266.301 121.143 267.502 119.942 267.502 118.461V109.685C267.502 108.204 266.301 107.003 264.82 107.003Z" fill="white"/>
</mask>
<g mask="url(#mask4_8_1541)">
<path d="M264.82 107.003H242.735C241.254 107.003 240.053 108.204 240.053 109.685V118.461C240.053 119.942 241.254 121.143 242.735 121.143H264.82C266.301 121.143 267.502 119.942 267.502 118.461V109.685C267.502 108.204 266.301 107.003 264.82 107.003Z" fill="white" fill-opacity="0.5"/>
</g>
<mask id="mask5_8_1541" style="mask-type:luminance" maskUnits="userSpaceOnUse" x="240" y="124" width="28" height="16">
<path d="M264.82 124.878H242.735C241.254 124.878 240.053 126.079 240.053 127.56V136.336C240.053 137.817 241.254 139.018 242.735 139.018H264.82C266.301 139.018 267.502 137.817 267.502 136.336V127.56C267.502 126.079 266.301 124.878 264.82 124.878Z" fill="white"/>
</mask>
<g mask="url(#mask5_8_1541)">
<path d="M264.82 124.878H242.735C241.254 124.878 240.053 126.079 240.053 127.56V136.336C240.053 137.817 241.254 139.018 242.735 139.018H264.82C266.301 139.018 267.502 137.817 267.502 136.336V127.56C267.502 126.079 266.301 124.878 264.82 124.878Z" fill="white" fill-opacity="0.5"/>
</g>
</g>
<path d="M254.729 45.8798H182.427C177.288 45.8798 173.122 50.0459 173.122 55.185V122.507C173.122 127.646 177.288 131.812 182.427 131.812H254.729C259.868 131.812 264.034 127.646 264.034 122.507V55.185C264.034 50.0459 259.868 45.8798 254.729 45.8798Z" stroke="#999999" stroke-width="2.51705"/>
<mask id="mask6_8_1541" style="mask-type:luminance" maskUnits="userSpaceOnUse" x="273" y="47" width="89" height="84">
<path d="M353.852 47.1382H281.551C277.107 47.1382 273.504 50.7408 273.504 55.1849V122.506C273.504 126.951 277.107 130.553 281.551 130.553H353.852C358.296 130.553 361.899 126.951 361.899 122.506V55.1849C361.899 50.7408 358.296 47.1382 353.852 47.1382Z" fill="white"/>
</mask>
<g mask="url(#mask6_8_1541)">
<path d="M353.852 47.1382H281.551C277.107 47.1382 273.504 50.7408 273.504 55.1849V122.506C273.504 126.951 277.107 130.553 281.551 130.553H353.852C358.296 130.553 361.899 126.951 361.899 122.506V55.1849C361.899 50.7408 358.296 47.1382 353.852 47.1382Z" fill="black"/>
<path d="M294.912 67.5485C292.884 71.0606 288.393 72.2639 284.881 70.2362C283.937 69.6923 283.125 68.944 282.507 68.0463C282.459 67.9768 282.428 67.8973 282.416 67.8139C282.404 67.7305 282.411 67.6454 282.437 67.5652C282.463 67.485 282.507 67.4118 282.565 67.3512C282.624 67.2907 282.696 67.2444 282.775 67.216C285.541 66.2263 287.022 65.0789 287.882 63.4381C288.786 61.7106 289.02 59.8188 288.388 57.2243C288.367 57.1409 288.367 57.0539 288.386 56.9702C288.405 56.8866 288.444 56.8086 288.499 56.7425C288.554 56.6765 288.623 56.6242 288.702 56.5898C288.781 56.5554 288.866 56.5399 288.952 56.5445C290.104 56.6065 291.226 56.9403 292.224 57.5187C295.736 59.5457 296.94 64.0364 294.911 67.5478L294.912 67.5485ZM288.857 63.949C287.939 65.7022 286.427 66.9583 283.852 67.9861C284.304 68.5022 284.838 68.9402 285.432 69.2826C286.142 69.6924 286.925 69.9584 287.738 70.0654C288.551 70.1724 289.376 70.1183 290.168 69.9062C290.96 69.6941 291.702 69.3281 292.352 68.8292C293.002 68.3302 293.548 67.7081 293.958 66.9983C294.368 66.2885 294.634 65.5049 294.741 64.6923C294.848 63.8797 294.794 63.0539 294.581 62.2622C294.369 61.4705 294.003 60.7283 293.504 60.0781C293.005 59.4278 292.383 58.8822 291.674 58.4723C291.039 58.1051 290.346 57.8526 289.624 57.7265C290.099 60.2108 289.793 62.1636 288.857 63.949Z" fill="white"/>
<path d="M306.387 68.3782H303.413V59.6H306.447C307.319 59.6 308.068 59.7757 308.693 60.1272C309.322 60.4758 309.805 60.9773 310.142 61.6316C310.479 62.286 310.648 63.0689 310.648 63.9805C310.648 64.8949 310.478 65.6807 310.138 66.3379C309.801 66.9951 309.313 67.4995 308.676 67.851C308.042 68.2024 307.279 68.3782 306.387 68.3782ZM305.003 67.0023H306.31C306.922 67.0023 307.432 66.8908 307.84 66.668C308.249 66.4422 308.556 66.1065 308.762 65.6607C308.968 65.2121 309.071 64.652 309.071 63.9805C309.071 63.309 308.968 62.7518 308.762 62.3089C308.556 61.8631 308.252 61.5302 307.849 61.3102C307.449 61.0873 306.952 60.9758 306.357 60.9758H305.003V67.0023ZM313.985 68.511C313.568 68.511 313.192 68.4368 312.857 68.2882C312.526 68.1367 312.263 67.9138 312.069 67.6195C311.877 67.3252 311.782 66.9623 311.782 66.5308C311.782 66.1593 311.85 65.8521 311.987 65.6093C312.124 65.3664 312.312 65.1721 312.549 65.0263C312.786 64.8806 313.053 64.7706 313.35 64.6963C313.65 64.6191 313.96 64.5634 314.28 64.5291C314.666 64.4891 314.979 64.4534 315.219 64.422C315.459 64.3877 315.633 64.3362 315.742 64.2677C315.854 64.1962 315.909 64.0862 315.909 63.9376V63.9119C315.909 63.589 315.814 63.339 315.622 63.1618C315.431 62.9847 315.155 62.8961 314.795 62.8961C314.415 62.8961 314.113 62.9789 313.89 63.1447C313.67 63.3104 313.522 63.5061 313.445 63.7319L311.996 63.5261C312.11 63.1261 312.299 62.7918 312.562 62.5232C312.825 62.2517 313.146 62.0488 313.526 61.9145C313.906 61.7774 314.326 61.7088 314.786 61.7088C315.103 61.7088 315.419 61.7459 315.733 61.8202C316.048 61.8945 316.335 62.0174 316.595 62.1888C316.855 62.3574 317.064 62.5875 317.221 62.8789C317.381 63.1704 317.461 63.5347 317.461 63.9719V68.3782H315.969V67.4738H315.918C315.824 67.6567 315.691 67.8281 315.519 67.9881C315.351 68.1453 315.138 68.2724 314.881 68.3696C314.626 68.4639 314.328 68.511 313.985 68.511ZM314.388 67.3709C314.699 67.3709 314.969 67.3095 315.198 67.1866C315.426 67.0609 315.602 66.8951 315.725 66.6894C315.851 66.4837 315.914 66.2593 315.914 66.0165V65.2406C315.865 65.2807 315.782 65.3178 315.665 65.3521C315.551 65.3864 315.422 65.4164 315.279 65.4421C315.136 65.4678 314.995 65.4907 314.855 65.5107C314.715 65.5307 314.593 65.5478 314.49 65.5621C314.259 65.5935 314.052 65.645 313.869 65.7164C313.686 65.7879 313.542 65.8879 313.436 66.0165C313.33 66.1422 313.277 66.3051 313.277 66.5051C313.277 66.7908 313.382 67.0066 313.59 67.1523C313.799 67.298 314.065 67.3709 314.388 67.3709ZM319.021 68.3782V61.7945H320.526V62.8918H320.594C320.714 62.5117 320.92 62.2188 321.211 62.0131C321.506 61.8045 321.841 61.7002 322.219 61.7002C322.304 61.7002 322.4 61.7045 322.506 61.7131C322.614 61.7188 322.704 61.7288 322.776 61.7431V63.1704C322.71 63.1475 322.606 63.1275 322.463 63.1104C322.323 63.0904 322.187 63.0804 322.056 63.0804C321.773 63.0804 321.518 63.1418 321.293 63.2647C321.07 63.3847 320.894 63.5519 320.766 63.7662C320.637 63.9805 320.573 64.2277 320.573 64.5077V68.3782H319.021ZM325.221 66.3122L325.217 64.4391H325.465L327.831 61.7945H329.644L326.734 65.0349H326.413L325.221 66.3122ZM323.807 68.3782V59.6H325.358V68.3782H323.807ZM327.939 68.3782L325.795 65.3821L326.841 64.2891L329.795 68.3782H327.939Z" fill="white"/>
<path d="M370.771 83.3503H285.844C282.882 83.3503 280.48 85.7521 280.48 88.7148V129.222C280.48 132.185 282.882 134.587 285.844 134.587H370.771C373.733 134.587 376.135 132.185 376.135 129.222V88.7148C376.135 85.7521 373.733 83.3503 370.771 83.3503Z" fill="black"/>
<mask id="mask7_8_1541" style="mask-type:luminance" maskUnits="userSpaceOnUse" x="284" y="89" width="52" height="48">
<path d="M331.901 89.1277H288.902C286.68 89.1277 284.879 90.929 284.879 93.151V132.414C284.879 134.636 286.68 136.438 288.902 136.438H331.901C334.123 136.438 335.924 134.636 335.924 132.414V93.151C335.924 90.929 334.123 89.1277 331.901 89.1277Z" fill="white"/>
</mask>
<g mask="url(#mask7_8_1541)">
<path d="M331.901 89.1277H288.902C286.68 89.1277 284.879 90.929 284.879 93.151V132.414C284.879 134.636 286.68 136.438 288.902 136.438H331.901C334.123 136.438 335.924 134.636 335.924 132.414V93.151C335.924 90.929 334.123 89.1277 331.901 89.1277Z" fill="white" fill-opacity="0.2"/>
</g>
<mask id="mask8_8_1541" style="mask-type:luminance" maskUnits="userSpaceOnUse" x="339" y="89" width="29" height="15">
<path d="M364.423 89.1277H342.338C340.857 89.1277 339.656 90.3286 339.656 91.8099V100.586C339.656 102.067 340.857 103.268 342.338 103.268H364.423C365.904 103.268 367.105 102.067 367.105 100.586V91.8099C367.105 90.3286 365.904 89.1277 364.423 89.1277Z" fill="white"/>
</mask>
<g mask="url(#mask8_8_1541)">
<path d="M364.423 89.1277H342.338C340.857 89.1277 339.656 90.3286 339.656 91.8099V100.586C339.656 102.067 340.857 103.268 342.338 103.268H364.423C365.904 103.268 367.105 102.067 367.105 100.586V91.8099C367.105 90.3286 365.904 89.1277 364.423 89.1277Z" fill="white" fill-opacity="0.2"/>
</g>
<mask id="mask9_8_1541" style="mask-type:luminance" maskUnits="userSpaceOnUse" x="339" y="107" width="29" height="15">
<path d="M364.423 107.003H342.338C340.857 107.003 339.656 108.204 339.656 109.685V118.461C339.656 119.942 340.857 121.143 342.338 121.143H364.423C365.904 121.143 367.105 119.942 367.105 118.461V109.685C367.105 108.204 365.904 107.003 364.423 107.003Z" fill="white"/>
</mask>
<g mask="url(#mask9_8_1541)">
<path d="M364.423 107.003H342.338C340.857 107.003 339.656 108.204 339.656 109.685V118.461C339.656 119.942 340.857 121.143 342.338 121.143H364.423C365.904 121.143 367.105 119.942 367.105 118.461V109.685C367.105 108.204 365.904 107.003 364.423 107.003Z" fill="white" fill-opacity="0.2"/>
</g>
<mask id="mask10_8_1541" style="mask-type:luminance" maskUnits="userSpaceOnUse" x="339" y="124" width="29" height="16">
<path d="M364.423 124.878H342.338C340.857 124.878 339.656 126.079 339.656 127.56V136.336C339.656 137.817 340.857 139.018 342.338 139.018H364.423C365.904 139.018 367.105 137.817 367.105 136.336V127.56C367.105 126.079 365.904 124.878 364.423 124.878Z" fill="white"/>
</mask>
<g mask="url(#mask10_8_1541)">
<path d="M364.423 124.878H342.338C340.857 124.878 339.656 126.079 339.656 127.56V136.336C339.656 137.817 340.857 139.018 342.338 139.018H364.423C365.904 139.018 367.105 137.817 367.105 136.336V127.56C367.105 126.079 365.904 124.878 364.423 124.878Z" fill="white" fill-opacity="0.2"/>
</g>
</g>
<path d="M353.852 45.8798H281.55C276.411 45.8798 272.245 50.0459 272.245 55.185V122.507C272.245 127.646 276.411 131.812 281.55 131.812H353.852C358.991 131.812 363.157 127.646 363.157 122.507V55.185C363.157 50.0459 358.991 45.8798 353.852 45.8798Z" stroke="#2873BD" stroke-width="2.51705"/>
<path d="M378.56 -8.49316H159.44C151.469 -8.49316 145.007 -2.0312 145.007 5.94004V135.533C145.007 143.504 151.469 149.966 159.44 149.966H378.56C386.531 149.966 392.993 143.504 392.993 135.533V5.94004C392.993 -2.0312 386.531 -8.49316 378.56 -8.49316Z" stroke="url(#paint0_linear_8_1541)" stroke-width="1.01363"/>
<path d="M170.071 18.3877H30.9293C24.8312 18.3877 19.8877 23.3312 19.8877 29.4293V154.631C19.8877 160.729 24.8312 165.673 30.9293 165.673H170.071C176.169 165.673 181.113 160.729 181.113 154.631V29.4293C181.113 23.3312 176.169 18.3877 170.071 18.3877Z" fill="url(#paint1_linear_8_1541)"/>
<path d="M43.1865 44.2393V36.8149H45.8075C46.2991 36.8149 46.7309 36.9079 47.103 37.094C47.475 37.28 47.764 37.5457 47.97 37.8912C48.1826 38.2367 48.2889 38.6419 48.2889 39.107C48.2889 39.5721 48.1826 39.9773 47.97 40.3228C47.764 40.6616 47.475 40.9274 47.103 41.12C46.7376 41.3061 46.3057 41.3991 45.8075 41.3991H44.1631V44.2393H43.1865ZM44.1631 40.5022H45.8373C46.1363 40.5022 46.3954 40.4457 46.6147 40.3328C46.8339 40.2198 47.0033 40.0571 47.1229 39.8445C47.2425 39.6319 47.3023 39.386 47.3023 39.107C47.3023 38.8213 47.2425 38.5755 47.1229 38.3696C47.0033 38.157 46.8339 37.9942 46.6147 37.8812C46.3954 37.7683 46.1363 37.7118 45.8373 37.7118H44.1631V40.5022ZM49.5 44.2393V38.8678H50.4069V39.8544L50.3072 39.7149C50.4334 39.4093 50.6261 39.1834 50.8852 39.0372C51.1443 38.8844 51.4599 38.808 51.8319 38.808H52.1608V39.685H51.6924C51.3137 39.685 51.0081 39.8046 50.7756 40.0438C50.5431 40.2763 50.4268 40.6085 50.4268 41.0403V44.2393H49.5ZM55.5352 44.3588C55.017 44.3588 54.5486 44.2393 54.1301 44.0001C53.7115 43.7543 53.3793 43.4188 53.1335 42.9936C52.8877 42.5684 52.7648 42.0867 52.7648 41.5486C52.7648 41.0104 52.8844 40.5321 53.1236 40.1135C53.3694 39.695 53.7016 39.3628 54.1201 39.117C54.5387 38.8712 55.0104 38.7482 55.5352 38.7482C56.0534 38.7482 56.5218 38.8712 56.9404 39.117C57.3589 39.3561 57.6878 39.685 57.9269 40.1036C58.1728 40.5221 58.2957 41.0038 58.2957 41.5486C58.2957 42.0933 58.1694 42.5783 57.917 43.0035C57.6645 43.4221 57.329 43.7543 56.9105 44.0001C56.4986 44.2393 56.0401 44.3588 55.5352 44.3588ZM55.5352 43.4619C55.8674 43.4619 56.1664 43.3789 56.4321 43.2128C56.7045 43.0467 56.9171 42.8175 57.0699 42.5252C57.2294 42.2329 57.3091 41.9073 57.3091 41.5486C57.3091 41.1832 57.2294 40.8609 57.0699 40.5819C56.9171 40.2962 56.7045 40.0703 56.4321 39.9042C56.1664 39.7315 55.8674 39.6451 55.5352 39.6451C55.1964 39.6451 54.8908 39.7315 54.6184 39.9042C54.3526 40.0703 54.14 40.2962 53.9806 40.5819C53.8211 40.8609 53.7414 41.1832 53.7414 41.5486C53.7414 41.9073 53.8211 42.2329 53.9806 42.5252C54.14 42.8175 54.3526 43.0467 54.6184 43.2128C54.8908 43.3789 55.1964 43.4619 55.5352 43.4619ZM61.946 44.3588C61.4411 44.3588 60.986 44.2359 60.5807 43.9901C60.1821 43.7443 59.8665 43.4088 59.634 42.9836C59.4015 42.5584 59.2852 42.0834 59.2852 41.5585C59.2852 41.0204 59.4015 40.542 59.634 40.1235C59.8665 39.6983 60.1821 39.3628 60.5807 39.117C60.986 38.8712 61.4411 38.7482 61.946 38.7482C62.3911 38.7482 62.7864 38.8446 63.1319 39.0372C63.4774 39.2233 63.7498 39.4757 63.9491 39.7946L63.7996 40.0238V36.6953H64.7364V44.2393H63.8295V43.0932L63.9491 43.2527C63.7631 43.6048 63.4907 43.8772 63.1319 44.0698C62.7798 44.2625 62.3845 44.3588 61.946 44.3588ZM62.0257 43.4619C62.3646 43.4619 62.6669 43.3789 62.9326 43.2128C63.1984 43.0467 63.4076 42.8208 63.5604 42.5352C63.7199 42.2428 63.7996 41.9173 63.7996 41.5585C63.7996 41.1931 63.7199 40.8676 63.5604 40.5819C63.4076 40.2896 63.1984 40.0604 62.9326 39.8943C62.6669 39.7282 62.3646 39.6451 62.0257 39.6451C61.6936 39.6451 61.3913 39.7315 61.1189 39.9042C60.8531 40.0703 60.6439 40.2962 60.491 40.5819C60.3382 40.8609 60.2618 41.1865 60.2618 41.5585C60.2618 41.9173 60.3382 42.2428 60.491 42.5352C60.6439 42.8208 60.8531 43.0467 61.1189 43.2128C61.3846 43.3789 61.6869 43.4619 62.0257 43.4619ZM68.0743 44.3588C67.6889 44.3588 67.3402 44.2692 67.0279 44.0898C66.7223 43.9104 66.4831 43.6613 66.3104 43.3424C66.1443 43.0168 66.0612 42.6448 66.0612 42.2262V38.8678H66.988V42.1266C66.988 42.3923 67.0412 42.6248 67.1475 42.8242C67.2604 43.0235 67.4132 43.1796 67.6059 43.2925C67.8052 43.4055 68.0311 43.4619 68.2836 43.4619C68.536 43.4619 68.7586 43.4055 68.9512 43.2925C69.1506 43.1796 69.3034 43.0168 69.4097 42.8042C69.5226 42.5916 69.5791 42.3392 69.5791 42.0468V38.8678H70.5158V44.2393H69.609V43.1929L69.7585 43.2826C69.6322 43.6214 69.4163 43.8871 69.1107 44.0798C68.8117 44.2658 68.4663 44.3588 68.0743 44.3588ZM74.443 44.3588C73.9182 44.3588 73.4498 44.2359 73.0379 43.9901C72.6326 43.7443 72.3137 43.4088 72.0812 42.9836C71.8487 42.5584 71.7324 42.0801 71.7324 41.5486C71.7324 41.0104 71.8487 40.5321 72.0812 40.1135C72.3137 39.695 72.6326 39.3628 73.0379 39.117C73.4498 38.8712 73.9182 38.7482 74.443 38.7482C74.7952 38.7482 75.124 38.8114 75.4296 38.9376C75.7352 39.0638 76.0043 39.2332 76.2368 39.4458C76.4694 39.6584 76.6388 39.9076 76.7451 40.1932L75.9179 40.5919C75.7917 40.3128 75.599 40.087 75.3399 39.9142C75.0808 39.7348 74.7819 39.6451 74.443 39.6451C74.1175 39.6451 73.8219 39.7282 73.5561 39.8943C73.297 40.0604 73.091 40.2863 72.9382 40.5719C72.7854 40.8576 72.709 41.1865 72.709 41.5585C72.709 41.9173 72.7854 42.2428 72.9382 42.5352C73.091 42.8208 73.297 43.0467 73.5561 43.2128C73.8219 43.3789 74.1175 43.4619 74.443 43.4619C74.7819 43.4619 75.0808 43.3756 75.3399 43.2028C75.599 43.0235 75.7917 42.7876 75.9179 42.4953L76.7451 42.9138C76.6388 43.1929 76.4694 43.442 76.2368 43.6613C76.0043 43.8739 75.7352 44.0433 75.4296 44.1695C75.124 44.2957 74.7952 44.3588 74.443 44.3588ZM80.1387 44.2991C79.6139 44.2991 79.2086 44.1496 78.9229 43.8506C78.6439 43.5516 78.5044 43.1298 78.5044 42.585V39.7548H77.5278V38.8678H77.7271C77.9662 38.8678 78.1556 38.7948 78.2951 38.6486C78.4346 38.5024 78.5044 38.3098 78.5044 38.0706V37.6321H79.4312V38.8678H80.637V39.7548H79.4312V42.5551C79.4312 42.7345 79.4578 42.8906 79.5109 43.0235C79.5707 43.1563 79.667 43.2626 79.7999 43.3424C79.9328 43.4154 80.1088 43.452 80.3281 43.452C80.3746 43.452 80.4311 43.4487 80.4975 43.442C80.5706 43.4354 80.637 43.4287 80.6968 43.4221V44.2393C80.6104 44.2592 80.5141 44.2725 80.4078 44.2791C80.3015 44.2924 80.2118 44.2991 80.1387 44.2991Z" fill="#ADADAD"/>
<path d="M150.376 56.5164H50.4326C46.1459 56.5164 42.6708 59.9914 42.6708 64.2781V76.3488C42.6708 80.6355 46.1459 84.1106 50.4326 84.1106H150.376C154.663 84.1106 158.138 80.6355 158.138 76.3488V64.2781C158.138 59.9914 154.663 56.5164 150.376 56.5164Z" fill="#303030"/>
<path d="M73.1382 75.3272L70.3972 67.7361H71.4671L73.7903 74.4102H73.5764L75.8996 67.7361H76.9695L74.2387 75.3272H73.1382ZM77.8151 75.3272V69.8351H78.7627V75.3272H77.8151ZM77.8151 68.9588V67.7361H78.7627V68.9588H77.8151ZM82.7295 75.4495C82.2133 75.4495 81.748 75.3239 81.3336 75.0725C80.926 74.8212 80.6033 74.4781 80.3656 74.0434C80.1278 73.6086 80.0089 73.1229 80.0089 72.5863C80.0089 72.036 80.1278 71.547 80.3656 71.119C80.6033 70.6842 80.926 70.3412 81.3336 70.0899C81.748 69.8385 82.2133 69.7128 82.7295 69.7128C83.1847 69.7128 83.5889 69.8113 83.9421 70.0083C84.2953 70.1985 84.5738 70.4567 84.7776 70.7827L84.6248 71.0171V67.6138H85.5826V75.3272H84.6554V74.1555L84.7776 74.3185C84.5874 74.6785 84.3089 74.957 83.9421 75.154C83.5821 75.351 83.1779 75.4495 82.7295 75.4495ZM82.8111 74.5325C83.1575 74.5325 83.4666 74.4476 83.7383 74.2777C84.01 74.1079 84.224 73.8769 84.3802 73.5848C84.5433 73.286 84.6248 72.9531 84.6248 72.5863C84.6248 72.2127 84.5433 71.8798 84.3802 71.5877C84.224 71.2888 84.01 71.0545 83.7383 70.8846C83.4666 70.7148 83.1575 70.6299 82.8111 70.6299C82.4714 70.6299 82.1623 70.7182 81.8838 70.8948C81.6121 71.0646 81.3981 71.2956 81.2419 71.5877C81.0856 71.873 81.0075 72.2059 81.0075 72.5863C81.0075 72.9531 81.0856 73.286 81.2419 73.5848C81.3981 73.8769 81.6121 74.1079 81.8838 74.2777C82.1555 74.4476 82.4646 74.5325 82.8111 74.5325ZM89.5763 75.4495C89.0465 75.4495 88.5743 75.3239 88.16 75.0725C87.7456 74.8212 87.4195 74.4781 87.1818 74.0434C86.944 73.6018 86.8252 73.1093 86.8252 72.5659C86.8252 72.0157 86.9406 71.5266 87.1716 71.0986C87.4094 70.6707 87.7286 70.3344 88.1294 70.0899C88.537 69.8385 88.9921 69.7128 89.4948 69.7128C89.9024 69.7128 90.2624 69.7876 90.5749 69.937C90.8942 70.0797 91.1625 70.2767 91.3799 70.528C91.604 70.7725 91.7738 71.0545 91.8893 71.3737C92.0116 71.6862 92.0727 72.0123 92.0727 72.3519C92.0727 72.4266 92.0659 72.5116 92.0524 72.6067C92.0456 72.695 92.0354 72.7799 92.0218 72.8614H87.518V72.0462H91.4716L91.0232 72.4131C91.0844 72.0598 91.0504 71.7439 90.9213 71.4654C90.7923 71.1869 90.6021 70.9661 90.3507 70.8031C90.0994 70.6401 89.8141 70.5586 89.4948 70.5586C89.1755 70.5586 88.8834 70.6401 88.6185 70.8031C88.3536 70.9661 88.1464 71.2005 87.9969 71.5062C87.8543 71.8051 87.7966 72.1617 87.8237 72.5761C87.7966 72.9769 87.8577 73.3301 88.0071 73.6358C88.1634 73.9347 88.3807 74.169 88.6593 74.3389C88.9446 74.5019 89.2536 74.5834 89.5865 74.5834C89.9533 74.5834 90.2624 74.4985 90.5137 74.3287C90.7651 74.1589 90.9689 73.9415 91.1251 73.6766L91.9199 74.0841C91.8112 74.3355 91.6414 74.5664 91.4104 74.777C91.1863 74.9808 90.9179 75.1438 90.6055 75.2661C90.2998 75.3884 89.9567 75.4495 89.5763 75.4495ZM95.9168 75.4495C95.3869 75.4495 94.908 75.3272 94.4801 75.0827C94.0521 74.8314 93.7125 74.4883 93.4611 74.0536C93.2098 73.6188 93.0841 73.1263 93.0841 72.5761C93.0841 72.0259 93.2064 71.5368 93.4509 71.1088C93.7023 70.6808 94.0419 70.3412 94.4699 70.0899C94.8979 69.8385 95.3802 69.7128 95.9168 69.7128C96.4467 69.7128 96.9256 69.8385 97.3535 70.0899C97.7815 70.3344 98.1177 70.6707 98.3623 71.0986C98.6136 71.5266 98.7393 72.0191 98.7393 72.5761C98.7393 73.1331 98.6102 73.629 98.3521 74.0638C98.094 74.4917 97.7509 74.8314 97.3229 75.0827C96.9018 75.3272 96.4331 75.4495 95.9168 75.4495ZM95.9168 74.5325C96.2564 74.5325 96.5621 74.4476 96.8339 74.2777C97.1124 74.1079 97.3297 73.8735 97.486 73.5747C97.649 73.2758 97.7305 72.9429 97.7305 72.5761C97.7305 72.2025 97.649 71.873 97.486 71.5877C97.3297 71.2956 97.1124 71.0646 96.8339 70.8948C96.5621 70.7182 96.2564 70.6299 95.9168 70.6299C95.5704 70.6299 95.2579 70.7182 94.9794 70.8948C94.7076 71.0646 94.4903 71.2956 94.3272 71.5877C94.1642 71.873 94.0827 72.2025 94.0827 72.5761C94.0827 72.9429 94.1642 73.2758 94.3272 73.5747C94.4903 73.8735 94.7076 74.1079 94.9794 74.2777C95.2579 74.4476 95.5704 74.5325 95.9168 74.5325Z" fill="#B9B9B9"/>
<path d="M58.2475 65.9647H51.0713C50.297 65.9647 49.6692 66.5925 49.6692 67.3669V74.5431C49.6692 75.3174 50.297 75.9452 51.0713 75.9452H58.2475C59.0219 75.9452 59.6497 75.3174 59.6497 74.5431V67.3669C59.6497 66.5925 59.0219 65.9647 58.2475 65.9647Z" stroke="#A9A9A9" stroke-width="0.783806"/>
<path d="M150.376 56.5164H50.4326C46.1459 56.5164 42.6708 59.9914 42.6708 64.2781V76.3488C42.6708 80.6355 46.1459 84.1106 50.4326 84.1106H150.376C154.663 84.1106 158.138 80.6355 158.138 76.3488V64.2781C158.138 59.9914 154.663 56.5164 150.376 56.5164Z" stroke="#2D2D2D" stroke-width="0.622846"/>
<path d="M150.376 89.7161H50.4326C46.1459 89.7161 42.6708 93.1911 42.6708 97.4778V109.548C42.6708 113.835 46.1459 117.31 50.4326 117.31H150.376C154.663 117.31 158.138 113.835 158.138 109.548V97.4778C158.138 93.1911 154.663 89.7161 150.376 89.7161Z" fill="#303030"/>
<path d="M71.1309 108.526V100.935H72.1295V107.609H75.4614V108.526H71.1309ZM76.4718 108.526V103.034H77.4194V108.526H76.4718ZM76.4718 102.158V100.935H77.4194V102.158H76.4718ZM80.4182 108.526L78.2682 103.034H79.3279L81.0499 107.68H80.6831L82.4153 103.034H83.475L81.3149 108.526H80.4182ZM86.7503 108.648C86.2205 108.648 85.7484 108.523 85.334 108.271C84.9196 108.02 84.5936 107.677 84.3558 107.242C84.118 106.801 83.9992 106.308 83.9992 105.765C83.9992 105.215 84.1146 104.725 84.3456 104.297C84.5834 103.87 84.9026 103.533 85.3034 103.289C85.711 103.037 86.1661 102.912 86.6688 102.912C87.0764 102.912 87.4364 102.986 87.7489 103.136C88.0682 103.279 88.3365 103.476 88.5539 103.727C88.778 103.971 88.9479 104.253 89.0633 104.573C89.1856 104.885 89.2467 105.211 89.2467 105.551C89.2467 105.626 89.24 105.71 89.2264 105.806C89.2196 105.894 89.2094 105.979 89.1958 106.06H84.692V105.245H88.6456L88.1972 105.612C88.2584 105.259 88.2244 104.943 88.0953 104.664C87.9663 104.386 87.7761 104.165 87.5247 104.002C87.2734 103.839 86.9881 103.757 86.6688 103.757C86.3495 103.757 86.0574 103.839 85.7925 104.002C85.5276 104.165 85.3204 104.399 85.171 104.705C85.0283 105.004 84.9706 105.361 84.9977 105.775C84.9706 106.176 85.0317 106.529 85.1811 106.835C85.3374 107.134 85.5548 107.368 85.8333 107.538C86.1186 107.701 86.4277 107.782 86.7605 107.782C87.1273 107.782 87.4364 107.697 87.6878 107.528C87.9391 107.358 88.1429 107.14 88.2991 106.875L89.0939 107.283C88.9852 107.534 88.8154 107.765 88.5844 107.976C88.3603 108.18 88.0919 108.343 87.7795 108.465C87.4738 108.587 87.1307 108.648 86.7503 108.648ZM94.9642 108.648C94.4819 108.648 94.0403 108.56 93.6395 108.383C93.2387 108.2 92.8991 107.952 92.6206 107.64C92.3421 107.327 92.1417 106.977 92.0194 106.59L92.8855 106.233C93.0689 106.723 93.3406 107.1 93.7007 107.365C94.0675 107.623 94.4954 107.752 94.9845 107.752C95.2834 107.752 95.545 107.704 95.7691 107.609C95.9933 107.514 96.1665 107.382 96.2888 107.212C96.4179 107.035 96.4824 106.831 96.4824 106.6C96.4824 106.281 96.3907 106.03 96.2073 105.846C96.0307 105.656 95.7691 105.513 95.4227 105.418L94.0267 104.99C93.4765 104.821 93.0553 104.552 92.7632 104.185C92.4711 103.819 92.3251 103.397 92.3251 102.922C92.3251 102.508 92.4236 102.144 92.6206 101.832C92.8244 101.512 93.1029 101.264 93.4561 101.088C93.8161 100.904 94.2237 100.813 94.6789 100.813C95.134 100.813 95.545 100.894 95.9118 101.057C96.2854 101.22 96.6013 101.441 96.8594 101.72C97.1175 101.991 97.3077 102.304 97.43 102.657L96.5741 103.014C96.4111 102.586 96.1665 102.263 95.8405 102.046C95.5144 101.821 95.1306 101.709 94.689 101.709C94.4173 101.709 94.1762 101.757 93.9656 101.852C93.7618 101.94 93.6022 102.073 93.4867 102.249C93.378 102.419 93.3237 102.623 93.3237 102.861C93.3237 103.139 93.412 103.387 93.5886 103.605C93.7652 103.822 94.0335 103.988 94.3936 104.104L95.6672 104.481C96.265 104.664 96.7168 104.926 97.0224 105.265C97.3281 105.605 97.481 106.026 97.481 106.529C97.481 106.943 97.3723 107.31 97.1549 107.629C96.9443 107.949 96.6488 108.2 96.2684 108.383C95.8948 108.56 95.4601 108.648 94.9642 108.648ZM101.062 108.587C100.526 108.587 100.111 108.434 99.8193 108.129C99.534 107.823 99.3913 107.392 99.3913 106.835V103.941H98.3928V103.034H98.5966C98.8411 103.034 99.0347 102.959 99.1774 102.81C99.32 102.66 99.3913 102.463 99.3913 102.219V101.77H100.339V103.034H101.572V103.941H100.339V106.804C100.339 106.988 100.366 107.147 100.42 107.283C100.482 107.419 100.58 107.528 100.716 107.609C100.852 107.684 101.032 107.721 101.256 107.721C101.304 107.721 101.361 107.718 101.429 107.711C101.504 107.704 101.572 107.697 101.633 107.691V108.526C101.545 108.547 101.446 108.56 101.338 108.567C101.229 108.58 101.137 108.587 101.062 108.587ZM102.871 108.526V103.034H103.798V104.043L103.696 103.9C103.825 103.588 104.022 103.357 104.287 103.207C104.552 103.051 104.875 102.973 105.255 102.973H105.591V103.87H105.113C104.725 103.87 104.413 103.992 104.175 104.236C103.937 104.474 103.819 104.814 103.819 105.255V108.526H102.871ZM108.96 108.648C108.43 108.648 107.958 108.523 107.544 108.271C107.13 108.02 106.803 107.677 106.566 107.242C106.328 106.801 106.209 106.308 106.209 105.765C106.209 105.215 106.325 104.725 106.555 104.297C106.793 103.87 107.113 103.533 107.513 103.289C107.921 103.037 108.376 102.912 108.879 102.912C109.286 102.912 109.646 102.986 109.959 103.136C110.278 103.279 110.546 103.476 110.764 103.727C110.988 103.971 111.158 104.253 111.273 104.573C111.395 104.885 111.457 105.211 111.457 105.551C111.457 105.626 111.45 105.71 111.436 105.806C111.429 105.894 111.419 105.979 111.406 106.06H106.902V105.245H110.855L110.407 105.612C110.468 105.259 110.434 104.943 110.305 104.664C110.176 104.386 109.986 104.165 109.735 104.002C109.483 103.839 109.198 103.757 108.879 103.757C108.559 103.757 108.267 103.839 108.002 104.002C107.737 104.165 107.53 104.399 107.381 104.705C107.238 105.004 107.18 105.361 107.208 105.775C107.18 106.176 107.242 106.529 107.391 106.835C107.547 107.134 107.765 107.368 108.043 107.538C108.328 107.701 108.638 107.782 108.97 107.782C109.337 107.782 109.646 107.697 109.898 107.528C110.149 107.358 110.353 107.14 110.509 106.875L111.304 107.283C111.195 107.534 111.025 107.765 110.794 107.976C110.57 108.18 110.302 108.343 109.989 108.465C109.684 108.587 109.341 108.648 108.96 108.648ZM114.232 108.648C113.872 108.648 113.553 108.584 113.275 108.455C113.003 108.319 112.789 108.136 112.633 107.905C112.476 107.667 112.398 107.395 112.398 107.089C112.398 106.797 112.46 106.536 112.582 106.305C112.711 106.067 112.908 105.867 113.173 105.704C113.444 105.541 113.784 105.425 114.192 105.357L116.23 105.021V105.816L114.406 106.121C114.052 106.183 113.794 106.295 113.631 106.458C113.475 106.621 113.397 106.821 113.397 107.059C113.397 107.283 113.485 107.47 113.662 107.619C113.845 107.769 114.073 107.843 114.345 107.843C114.691 107.843 114.99 107.772 115.241 107.629C115.499 107.48 115.7 107.28 115.842 107.028C115.992 106.777 116.067 106.498 116.067 106.193V104.797C116.067 104.498 115.954 104.257 115.73 104.073C115.513 103.883 115.224 103.788 114.864 103.788C114.552 103.788 114.273 103.87 114.029 104.033C113.791 104.189 113.614 104.399 113.499 104.664L112.673 104.236C112.775 103.985 112.938 103.761 113.163 103.564C113.387 103.36 113.648 103.2 113.947 103.085C114.246 102.969 114.559 102.912 114.885 102.912C115.306 102.912 115.676 102.993 115.995 103.156C116.315 103.313 116.562 103.533 116.739 103.819C116.922 104.097 117.014 104.423 117.014 104.797V108.526H116.087V107.487L116.26 107.548C116.145 107.765 115.988 107.956 115.791 108.119C115.594 108.282 115.364 108.411 115.099 108.506C114.834 108.601 114.545 108.648 114.232 108.648ZM118.483 108.526V103.034H119.411V104.155L119.278 103.982C119.414 103.635 119.631 103.37 119.93 103.187C120.229 103.003 120.566 102.912 120.939 102.912C121.367 102.912 121.751 103.031 122.091 103.268C122.437 103.506 122.675 103.819 122.804 104.206L122.539 104.216C122.682 103.788 122.923 103.465 123.262 103.248C123.602 103.024 123.979 102.912 124.393 102.912C124.774 102.912 125.117 103 125.423 103.177C125.735 103.353 125.983 103.598 126.166 103.91C126.35 104.223 126.441 104.576 126.441 104.97V108.526H125.484V105.276C125.484 104.97 125.429 104.712 125.321 104.501C125.212 104.291 125.062 104.128 124.872 104.012C124.689 103.89 124.471 103.829 124.22 103.829C123.976 103.829 123.755 103.89 123.558 104.012C123.368 104.128 123.215 104.294 123.099 104.511C122.991 104.722 122.936 104.977 122.936 105.276V108.526H121.978V105.276C121.978 104.97 121.924 104.712 121.815 104.501C121.707 104.291 121.557 104.128 121.367 104.012C121.184 103.89 120.966 103.829 120.715 103.829C120.47 103.829 120.25 103.89 120.053 104.012C119.862 104.128 119.71 104.294 119.594 104.511C119.485 104.722 119.431 104.977 119.431 105.276V108.526H118.483Z" fill="#B9B9B9"/>
<path d="M58.2475 99.1641H51.0713C50.297 99.1641 49.6692 99.7918 49.6692 100.566V107.742C49.6692 108.517 50.297 109.145 51.0713 109.145H58.2475C59.0219 109.145 59.6497 108.517 59.6497 107.742V100.566C59.6497 99.7918 59.0219 99.1641 58.2475 99.1641Z" stroke="#A9A9A9" stroke-width="0.783806"/>
<path d="M150.376 89.7161H50.4326C46.1459 89.7161 42.6708 93.1911 42.6708 97.4778V109.548C42.6708 113.835 46.1459 117.31 50.4326 117.31H150.376C154.663 117.31 158.138 113.835 158.138 109.548V97.4778C158.138 93.1911 154.663 89.7161 150.376 89.7161Z" stroke="#2D2D2D" stroke-width="0.622846"/>
<mask id="mask11_8_1541" style="mask-type:luminance" maskUnits="userSpaceOnUse" x="42" y="122" width="117" height="29">
<path d="M150.376 122.604H50.4326C45.9739 122.604 42.3594 126.219 42.3594 130.677V142.748C42.3594 147.207 45.9739 150.821 50.4326 150.821H150.376C154.835 150.821 158.449 147.207 158.449 142.748V130.677C158.449 126.219 154.835 122.604 150.376 122.604Z" fill="white"/>
</mask>
<g mask="url(#mask11_8_1541)">
<path d="M150.376 122.604H50.4326C45.9739 122.604 42.3594 126.219 42.3594 130.677V142.748C42.3594 147.207 45.9739 150.821 50.4326 150.821H150.376C154.835 150.821 158.449 147.207 158.449 142.748V130.677C158.449 126.219 154.835 122.604 150.376 122.604Z" fill="#2873BD"/>
<path d="M42.3594 124.166C42.3594 123.303 43.0585 122.604 43.9209 122.604H65.7817V170.49H43.9209C43.0585 170.49 42.3594 169.791 42.3594 168.928V124.166Z" fill="#2873BD"/>
<path d="M74.6094 141.779C74.0728 141.779 73.5735 141.68 73.1115 141.483C72.6564 141.286 72.259 141.014 71.9194 140.668C71.5865 140.315 71.325 139.9 71.1348 139.425C70.9446 138.949 70.8495 138.426 70.8495 137.856C70.8495 137.292 70.9412 136.772 71.1246 136.297C71.3148 135.814 71.5797 135.4 71.9194 135.053C72.259 134.7 72.6564 134.429 73.1115 134.238C73.5667 134.041 74.066 133.943 74.6094 133.943C75.146 133.943 75.625 134.035 76.0461 134.218C76.4741 134.401 76.8341 134.642 77.1262 134.941C77.4183 135.233 77.6289 135.553 77.758 135.899L76.6779 136.409C76.5148 136.001 76.2533 135.672 75.8933 135.42C75.54 135.162 75.1121 135.033 74.6094 135.033C74.1067 135.033 73.6618 135.152 73.2746 135.39C72.8874 135.627 72.5851 135.957 72.3677 136.378C72.1571 136.799 72.0518 137.292 72.0518 137.856C72.0518 138.419 72.1571 138.915 72.3677 139.343C72.5851 139.764 72.8874 140.094 73.2746 140.332C73.6618 140.563 74.1067 140.678 74.6094 140.678C75.1121 140.678 75.54 140.552 75.8933 140.301C76.2533 140.05 76.5148 139.72 76.6779 139.313L77.758 139.822C77.6289 140.162 77.4183 140.481 77.1262 140.78C76.8341 141.079 76.4741 141.32 76.0461 141.503C75.625 141.687 75.146 141.779 74.6094 141.779ZM78.8823 141.656V133.943H80.0337V137.224L79.8503 137.081C79.9862 136.735 80.2035 136.473 80.5024 136.297C80.8013 136.113 81.1478 136.021 81.5418 136.021C81.9493 136.021 82.3094 136.11 82.6218 136.286C82.9343 136.463 83.1789 136.708 83.3555 137.02C83.5321 137.333 83.6204 137.689 83.6204 138.09V141.656H82.4792V138.406C82.4792 138.127 82.4248 137.893 82.3162 137.703C82.2143 137.506 82.0716 137.356 81.8882 137.254C81.7048 137.146 81.4942 137.091 81.2564 137.091C81.0255 137.091 80.8149 137.146 80.6247 137.254C80.4413 137.356 80.2952 137.506 80.1866 137.703C80.0847 137.9 80.0337 138.134 80.0337 138.406V141.656H78.8823ZM86.5034 141.779C86.1298 141.779 85.8003 141.714 85.515 141.585C85.2365 141.449 85.0191 141.266 84.8629 141.035C84.7066 140.797 84.6285 140.518 84.6285 140.199C84.6285 139.9 84.6931 139.632 84.8221 139.394C84.958 139.156 85.1652 138.956 85.4437 138.793C85.7222 138.63 86.072 138.514 86.4932 138.447L88.4088 138.131V139.038L86.7174 139.333C86.4117 139.387 86.1875 139.486 86.0449 139.629C85.9022 139.764 85.8309 139.941 85.8309 140.158C85.8309 140.369 85.909 140.542 86.0652 140.678C86.2283 140.807 86.4355 140.872 86.6868 140.872C86.9993 140.872 87.271 140.804 87.502 140.668C87.7397 140.532 87.9231 140.352 88.0522 140.128C88.1813 139.897 88.2458 139.642 88.2458 139.364V137.947C88.2458 137.676 88.1439 137.455 87.9401 137.285C87.7431 137.108 87.4782 137.02 87.1453 137.02C86.8396 137.02 86.5713 137.102 86.3404 137.265C86.1162 137.421 85.9498 137.625 85.8411 137.876L84.8833 137.397C84.9852 137.125 85.1516 136.888 85.3826 136.684C85.6135 136.473 85.8818 136.31 86.1875 136.195C86.5 136.079 86.8295 136.021 87.1759 136.021C87.6107 136.021 87.9945 136.103 88.3273 136.266C88.667 136.429 88.9285 136.657 89.1119 136.949C89.3021 137.234 89.3972 137.567 89.3972 137.947V141.656H88.2967V140.658L88.5311 140.688C88.402 140.912 88.2356 141.106 88.0318 141.269C87.8348 141.432 87.6073 141.558 87.3491 141.646C87.0978 141.734 86.8159 141.779 86.5034 141.779ZM93.0283 141.717C92.4509 141.717 92.0026 141.554 91.6833 141.228C91.364 140.902 91.2044 140.444 91.2044 139.853V137.183H90.2364V136.144H90.3893C90.6474 136.144 90.8478 136.069 90.9904 135.92C91.1331 135.77 91.2044 135.566 91.2044 135.308V134.88H92.3558V136.144H93.6091V137.183H92.3558V139.802C92.3558 139.992 92.3864 140.155 92.4475 140.291C92.5087 140.42 92.6072 140.522 92.743 140.597C92.8789 140.664 93.0555 140.698 93.2729 140.698C93.3272 140.698 93.3884 140.695 93.4563 140.688C93.5242 140.681 93.5887 140.675 93.6499 140.668V141.656C93.5548 141.67 93.4495 141.683 93.334 141.697C93.2185 141.711 93.1166 141.717 93.0283 141.717Z" fill="white"/>
<path d="M58.2515 131.902H51.0753C50.0844 131.902 49.2812 132.705 49.2812 133.696V140.872C49.2812 141.863 50.0844 142.666 51.0753 142.666H58.2515C59.2423 142.666 60.0455 141.863 60.0455 140.872V133.696C60.0455 132.705 59.2423 131.902 58.2515 131.902Z" fill="white"/>
<path d="M57.68 135.161C57.8435 135.32 57.8435 135.579 57.68 135.738L53.9125 139.407C53.749 139.567 53.484 139.567 53.3205 139.407L51.646 137.776C51.4826 137.617 51.4826 137.359 51.646 137.2C51.8095 137.041 52.0746 137.041 52.2381 137.2L53.6165 138.542L57.088 135.161C57.2515 135.002 57.5165 135.002 57.68 135.161Z" fill="#2873BD"/>
</g>
<path d="M150.376 122.865H50.4326C46.1176 122.865 42.6196 126.363 42.6196 130.678V142.749C42.6196 147.064 46.1176 150.561 50.4326 150.561H150.376C154.691 150.561 158.189 147.064 158.189 142.749V130.678C158.189 126.363 154.691 122.865 150.376 122.865Z" stroke="#2873BD" stroke-width="0.520495"/>
<path d="M170.071 18.3877H30.9293C24.8312 18.3877 19.8877 23.3312 19.8877 29.4293V154.631C19.8877 160.729 24.8312 165.673 30.9293 165.673H170.071C176.169 165.673 181.113 160.729 181.113 154.631V29.4293C181.113 23.3312 176.169 18.3877 170.071 18.3877Z" stroke="url(#paint2_linear_8_1541)" stroke-width="0.775443"/>
</g>
</g>
</g>
<defs>
<linearGradient id="paint0_linear_8_1541" x1="269" y1="-8.99997" x2="269" y2="150.473" gradientUnits="userSpaceOnUse">
<stop stop-opacity="0"/>
<stop offset="0.966119" stop-color="#424242"/>
</linearGradient>
<linearGradient id="paint1_linear_8_1541" x1="100.5" y1="18" x2="100.5" y2="172.122" gradientUnits="userSpaceOnUse">
<stop/>
<stop offset="1" stop-color="#112148"/>
</linearGradient>
<linearGradient id="paint2_linear_8_1541" x1="100.5" y1="18" x2="100.5" y2="166.06" gradientUnits="userSpaceOnUse">
<stop stop-color="#5E5E5E" stop-opacity="0"/>
<stop offset="0.40365" stop-color="#727070" stop-opacity="0.59635"/>
<stop offset="0.990185" stop-color="#515151"/>
</linearGradient>
<clipPath id="clip0_8_1541">
<rect width="344" height="177" fill="white" transform="translate(0.5)"/>
</clipPath>
</defs>
</svg>
