<svg width="345" height="177" viewBox="0 0 345 177" fill="none" xmlns="http://www.w3.org/2000/svg">
<mask id="mask0_8_1309" style="mask-type:luminance" maskUnits="userSpaceOnUse" x="0" y="0" width="345" height="177">
<path d="M344.5 0H0.5V177H344.5V0Z" fill="white"/>
</mask>
<g mask="url(#mask0_8_1309)">
<g opacity="0.7">
<path d="M294.5 1H49.5C37.6259 1 28 10.6259 28 22.5V160.5C28 172.374 37.6259 182 49.5 182H294.5C306.374 182 316 172.374 316 160.5V22.5C316 10.6259 306.374 1 294.5 1Z" fill="black" fill-opacity="0.8" stroke="url(#paint0_linear_8_1309)"/>
<mask id="mask1_8_1309" style="mask-type:luminance" maskUnits="userSpaceOnUse" x="226" y="33" width="81" height="51">
<path d="M299.5 33.5H233.5C229.634 33.5 226.5 36.634 226.5 40.5V76.5C226.5 80.366 229.634 83.5 233.5 83.5H299.5C303.366 83.5 306.5 80.366 306.5 76.5V40.5C306.5 36.634 303.366 33.5 299.5 33.5Z" fill="white"/>
</mask>
<g mask="url(#mask1_8_1309)">
<path d="M299.5 33.5H233.5C229.634 33.5 226.5 36.634 226.5 40.5V76.5C226.5 80.366 229.634 83.5 233.5 83.5H299.5C303.366 83.5 306.5 80.366 306.5 76.5V40.5C306.5 36.634 303.366 33.5 299.5 33.5Z" fill="white" fill-opacity="0.1"/>
<path d="M261 70.5H236C234.067 70.5 232.5 72.067 232.5 74C232.5 75.933 234.067 77.5 236 77.5H261C262.933 77.5 264.5 75.933 264.5 74C264.5 72.067 262.933 70.5 261 70.5Z" fill="#658DF2"/>
</g>
<path d="M299.5 90.5H233.5C229.634 90.5 226.5 93.634 226.5 97.5V137.5C226.5 141.366 229.634 144.5 233.5 144.5H299.5C303.366 144.5 306.5 141.366 306.5 137.5V97.5C306.5 93.634 303.366 90.5 299.5 90.5Z" fill="white" fill-opacity="0.1"/>
<path d="M261 131.5H236C234.067 131.5 232.5 133.067 232.5 135C232.5 136.933 234.067 138.5 236 138.5H261C262.933 138.5 264.5 136.933 264.5 135C264.5 133.067 262.933 131.5 261 131.5Z" fill="#658DF2"/>
<mask id="mask2_8_1309" style="mask-type:luminance" maskUnits="userSpaceOnUse" x="226" y="151" width="81" height="51">
<path d="M299.5 151.5H233.5C229.634 151.5 226.5 154.634 226.5 158.5V194.5C226.5 198.366 229.634 201.5 233.5 201.5H299.5C303.366 201.5 306.5 198.366 306.5 194.5V158.5C306.5 154.634 303.366 151.5 299.5 151.5Z" fill="white"/>
</mask>
<g mask="url(#mask2_8_1309)">
<path d="M299.5 151.5H233.5C229.634 151.5 226.5 154.634 226.5 158.5V194.5C226.5 198.366 229.634 201.5 233.5 201.5H299.5C303.366 201.5 306.5 198.366 306.5 194.5V158.5C306.5 154.634 303.366 151.5 299.5 151.5Z" fill="white" fill-opacity="0.1"/>
</g>
<mask id="mask3_8_1309" style="mask-type:luminance" maskUnits="userSpaceOnUse" x="38" y="33" width="181" height="174">
<path d="M210.5 33.5H46.5C42.0817 33.5 38.5 37.0817 38.5 41.5V198.5C38.5 202.918 42.0817 206.5 46.5 206.5H210.5C214.918 206.5 218.5 202.918 218.5 198.5V41.5C218.5 37.0817 214.918 33.5 210.5 33.5Z" fill="white"/>
</mask>
<g mask="url(#mask3_8_1309)">
<path d="M210.5 33.5H46.5C42.0817 33.5 38.5 37.0817 38.5 41.5V198.5C38.5 202.918 42.0817 206.5 46.5 206.5H210.5C214.918 206.5 218.5 202.918 218.5 198.5V41.5C218.5 37.0817 214.918 33.5 210.5 33.5Z" fill="white" fill-opacity="0.1"/>
<path d="M94 145.5H51C49.067 145.5 47.5 147.067 47.5 149C47.5 150.933 49.067 152.5 51 152.5H94C95.933 152.5 97.5 150.933 97.5 149C97.5 147.067 95.933 145.5 94 145.5Z" fill="#658DF2"/>
</g>
<path d="M301.5 13.5H279.5C276.739 13.5 274.5 15.7386 274.5 18.5C274.5 21.2614 276.739 23.5 279.5 23.5H301.5C304.261 23.5 306.5 21.2614 306.5 18.5C306.5 15.7386 304.261 13.5 301.5 13.5Z" fill="white" fill-opacity="0.4"/>
<path d="M198.5 13.5H146.5C143.739 13.5 141.5 15.7386 141.5 18.5C141.5 21.2614 143.739 23.5 146.5 23.5H198.5C201.261 23.5 203.5 21.2614 203.5 18.5C203.5 15.7386 201.261 13.5 198.5 13.5Z" fill="white" fill-opacity="0.4"/>
<path d="M87.405 11.0898H45.5952C41.7155 11.0898 38.5703 14.2349 38.5703 18.1147C38.5703 21.9944 41.7155 25.1396 45.5952 25.1396H87.405C91.2847 25.1396 94.4299 21.9944 94.4299 18.1147C94.4299 14.2349 91.2847 11.0898 87.405 11.0898Z" fill="black" fill-opacity="0.4"/>
<path d="M45.5958 22.3299C47.9236 22.3299 49.8107 20.4428 49.8107 18.1149C49.8107 15.7871 47.9236 13.9 45.5958 13.9C43.268 13.9 41.3809 15.7871 41.3809 18.1149C41.3809 20.4428 43.268 22.3299 45.5958 22.3299Z" fill="black" fill-opacity="0.6"/>
<path d="M54.8371 18.5689L52.5779 15.1464H53.6148L55.2418 17.7681L56.9193 15.1464H57.9056L55.6464 18.5689V21.1147H54.8371V18.5689ZM58.074 19.1169C58.074 19.3192 58.1049 19.5075 58.1667 19.6817C58.2285 19.8503 58.3156 19.9964 58.428 20.12C58.5404 20.238 58.6781 20.3336 58.8411 20.4066C59.0041 20.4741 59.1867 20.5078 59.389 20.5078C59.5913 20.5078 59.774 20.4741 59.937 20.4066C60.0999 20.3336 60.2376 20.238 60.35 20.12C60.4624 19.9964 60.5495 19.8503 60.6114 19.6817C60.6732 19.5075 60.7041 19.3192 60.7041 19.1169C60.7041 18.9146 60.6732 18.7291 60.6114 18.5605C60.5495 18.3863 60.4624 18.2402 60.35 18.1222C60.2376 17.9985 60.0999 17.903 59.937 17.8355C59.774 17.7625 59.5913 17.726 59.389 17.726C59.1867 17.726 59.0041 17.7625 58.8411 17.8355C58.6781 17.903 58.5404 17.9985 58.428 18.1222C58.3156 18.2402 58.2285 18.3863 58.1667 18.5605C58.1049 18.7291 58.074 18.9146 58.074 19.1169ZM57.2647 19.1169C57.2647 18.8246 57.3181 18.5521 57.4249 18.2992C57.5373 18.0463 57.689 17.8243 57.8801 17.6332C58.0712 17.4422 58.296 17.2932 58.5545 17.1865C58.813 17.0741 59.0912 17.0179 59.389 17.0179C59.6869 17.0179 59.9651 17.0741 60.2236 17.1865C60.4821 17.2932 60.7069 17.4422 60.898 17.6332C61.089 17.8243 61.238 18.0463 61.3447 18.2992C61.4571 18.5521 61.5133 18.8246 61.5133 19.1169C61.5133 19.4091 61.4571 19.6845 61.3447 19.943C61.238 20.1959 61.089 20.4179 60.898 20.609C60.7069 20.7944 60.4821 20.9433 60.2236 21.0557C59.9651 21.1625 59.6869 21.2159 59.389 21.2159C59.0912 21.2159 58.813 21.1625 58.5545 21.0557C58.296 20.9433 58.0712 20.7944 57.8801 20.609C57.689 20.4179 57.5373 20.1959 57.4249 19.943C57.3181 19.6845 57.2647 19.4091 57.2647 19.1169ZM66.0043 21.1147H65.2456V20.4994H65.2288C65.1332 20.7129 64.9675 20.8871 64.7314 21.022C64.4954 21.1513 64.2228 21.2159 63.9137 21.2159C63.717 21.2159 63.5316 21.185 63.3574 21.1232C63.1832 21.067 63.0286 20.9771 62.8937 20.8534C62.7645 20.7298 62.6605 20.5724 62.5818 20.3814C62.5031 20.1847 62.4638 19.9542 62.4638 19.6901V17.119H63.2225V19.4794C63.2225 19.6648 63.2478 19.825 63.2984 19.9599C63.3489 20.0891 63.4164 20.1959 63.5007 20.2802C63.585 20.3589 63.6805 20.4179 63.7873 20.4572C63.8997 20.4909 64.0149 20.5078 64.1329 20.5078C64.2903 20.5078 64.4364 20.4825 64.5713 20.4319C64.7061 20.3814 64.8242 20.3027 64.9253 20.1959C65.0265 20.0835 65.1051 19.943 65.1613 19.7744C65.2175 19.6058 65.2456 19.4063 65.2456 19.1759V17.119H66.0043V21.1147ZM67.148 17.119H67.9066V17.7344H67.9235C67.9741 17.6276 68.0415 17.5321 68.1258 17.4478C68.2101 17.3579 68.3028 17.282 68.404 17.2202C68.5108 17.1584 68.626 17.1106 68.7496 17.0769C68.8733 17.0375 68.9969 17.0179 69.1205 17.0179C69.2442 17.0179 69.3566 17.0347 69.4577 17.0684L69.424 17.8861C69.3622 17.8693 69.3004 17.8552 69.2385 17.844C69.1767 17.8327 69.1149 17.8271 69.0531 17.8271C68.6822 17.8271 68.3984 17.9311 68.2017 18.139C68.005 18.347 67.9066 18.6701 67.9066 19.1085V21.1147H67.148V17.119ZM72.808 15.1464H73.6173V20.3561H76.357V21.1147H72.808V15.1464ZM77.6009 19.1169C77.6009 19.3192 77.6318 19.5075 77.6936 19.6817C77.7554 19.8503 77.8425 19.9964 77.9549 20.12C78.0673 20.238 78.205 20.3336 78.368 20.4066C78.5309 20.4741 78.7136 20.5078 78.9159 20.5078C79.1182 20.5078 79.3009 20.4741 79.4638 20.4066C79.6268 20.3336 79.7645 20.238 79.8769 20.12C79.9893 19.9964 80.0764 19.8503 80.1382 19.6817C80.2001 19.5075 80.231 19.3192 80.231 19.1169C80.231 18.9146 80.2001 18.7291 80.1382 18.5605C80.0764 18.3863 79.9893 18.2402 79.8769 18.1222C79.7645 17.9985 79.6268 17.903 79.4638 17.8355C79.3009 17.7625 79.1182 17.726 78.9159 17.726C78.7136 17.726 78.5309 17.7625 78.368 17.8355C78.205 17.903 78.0673 17.9985 77.9549 18.1222C77.8425 18.2402 77.7554 18.3863 77.6936 18.5605C77.6318 18.7291 77.6009 18.9146 77.6009 19.1169ZM76.7916 19.1169C76.7916 18.8246 76.845 18.5521 76.9518 18.2992C77.0642 18.0463 77.2159 17.8243 77.407 17.6332C77.598 17.4422 77.8228 17.2932 78.0814 17.1865C78.3399 17.0741 78.6181 17.0179 78.9159 17.0179C79.2138 17.0179 79.4919 17.0741 79.7505 17.1865C80.009 17.2932 80.2338 17.4422 80.4248 17.6332C80.6159 17.8243 80.7648 18.0463 80.8716 18.2992C80.984 18.5521 81.0402 18.8246 81.0402 19.1169C81.0402 19.4091 80.984 19.6845 80.8716 19.943C80.7648 20.1959 80.6159 20.4179 80.4248 20.609C80.2338 20.7944 80.009 20.9433 79.7505 21.0557C79.4919 21.1625 79.2138 21.2159 78.9159 21.2159C78.6181 21.2159 78.3399 21.1625 78.0814 21.0557C77.8228 20.9433 77.598 20.7944 77.407 20.609C77.2159 20.4179 77.0642 20.1959 76.9518 19.943C76.845 19.6845 76.7916 19.4091 76.7916 19.1169ZM85.9948 21.081C85.9948 21.3845 85.9415 21.6599 85.8347 21.9071C85.7335 22.16 85.5874 22.3764 85.3963 22.5562C85.2053 22.7417 84.9748 22.885 84.7051 22.9862C84.4353 23.0873 84.1375 23.1379 83.8115 23.1379C83.4294 23.1379 83.0781 23.0845 82.7578 22.9777C82.4431 22.871 82.1424 22.6855 81.8558 22.4214L82.37 21.7807C82.5667 21.9943 82.7803 22.1544 83.0107 22.2612C83.2411 22.3736 83.5024 22.4298 83.7947 22.4298C84.0757 22.4298 84.3089 22.3876 84.4943 22.3034C84.6798 22.2247 84.8259 22.1207 84.9327 21.9914C85.0451 21.8622 85.1238 21.7133 85.1687 21.5447C85.2137 21.3817 85.2362 21.2159 85.2362 21.0473V20.4572H85.2109C85.0648 20.6989 84.8653 20.8787 84.6124 20.9967C84.3651 21.1091 84.1038 21.1653 83.8284 21.1653C83.5361 21.1653 83.2636 21.1147 83.0107 21.0136C82.7634 20.9068 82.5499 20.7635 82.37 20.5837C82.1902 20.3982 82.0497 20.1818 81.9485 19.9346C81.8474 19.6817 81.7968 19.4091 81.7968 19.1169C81.7968 18.8246 81.8446 18.5521 81.9401 18.2992C82.0356 18.0407 82.1705 17.8159 82.3447 17.6248C82.5246 17.4337 82.7381 17.2848 82.9854 17.178C83.2383 17.0712 83.5193 17.0179 83.8284 17.0179C84.0981 17.0179 84.3595 17.0769 84.6124 17.1949C84.8709 17.3129 85.0732 17.4787 85.2193 17.6922H85.2362V17.119H85.9948V21.081ZM83.9211 17.726C83.7188 17.726 83.5361 17.7625 83.3732 17.8355C83.2102 17.903 83.0725 17.9985 82.9601 18.1222C82.8477 18.2402 82.7606 18.3863 82.6988 18.5605C82.637 18.7291 82.6061 18.9146 82.6061 19.1169C82.6061 19.5215 82.7241 19.8475 82.9601 20.0947C83.1961 20.3364 83.5165 20.4572 83.9211 20.4572C84.3257 20.4572 84.6461 20.3364 84.8821 20.0947C85.1181 19.8475 85.2362 19.5215 85.2362 19.1169C85.2362 18.9146 85.2053 18.7291 85.1434 18.5605C85.0816 18.3863 84.9945 18.2402 84.8821 18.1222C84.7697 17.9985 84.632 17.903 84.469 17.8355C84.3061 17.7625 84.1234 17.726 83.9211 17.726ZM87.7594 19.1169C87.7594 19.3192 87.7904 19.5075 87.8522 19.6817C87.914 19.8503 88.0011 19.9964 88.1135 20.12C88.2259 20.238 88.3636 20.3336 88.5266 20.4066C88.6895 20.4741 88.8722 20.5078 89.0745 20.5078C89.2768 20.5078 89.4595 20.4741 89.6224 20.4066C89.7854 20.3336 89.9231 20.238 90.0355 20.12C90.1479 19.9964 90.235 19.8503 90.2968 19.6817C90.3586 19.5075 90.3895 19.3192 90.3895 19.1169C90.3895 18.9146 90.3586 18.7291 90.2968 18.5605C90.235 18.3863 90.1479 18.2402 90.0355 18.1222C89.9231 17.9985 89.7854 17.903 89.6224 17.8355C89.4595 17.7625 89.2768 17.726 89.0745 17.726C88.8722 17.726 88.6895 17.7625 88.5266 17.8355C88.3636 17.903 88.2259 17.9985 88.1135 18.1222C88.0011 18.2402 87.914 18.3863 87.8522 18.5605C87.7904 18.7291 87.7594 18.9146 87.7594 19.1169ZM86.9502 19.1169C86.9502 18.8246 87.0036 18.5521 87.1103 18.2992C87.2227 18.0463 87.3745 17.8243 87.5656 17.6332C87.7566 17.4422 87.9814 17.2932 88.2399 17.1865C88.4985 17.0741 88.7766 17.0179 89.0745 17.0179C89.3723 17.0179 89.6505 17.0741 89.909 17.1865C90.1676 17.2932 90.3924 17.4422 90.5834 17.6332C90.7745 17.8243 90.9234 18.0463 91.0302 18.2992C91.1426 18.5521 91.1988 18.8246 91.1988 19.1169C91.1988 19.4091 91.1426 19.6845 91.0302 19.943C90.9234 20.1959 90.7745 20.4179 90.5834 20.609C90.3924 20.7944 90.1676 20.9433 89.909 21.0557C89.6505 21.1625 89.3723 21.2159 89.0745 21.2159C88.7766 21.2159 88.4985 21.1625 88.2399 21.0557C87.9814 20.9433 87.7566 20.7944 87.5656 20.609C87.3745 20.4179 87.2227 20.1959 87.1103 19.943C87.0036 19.6845 86.9502 19.4091 86.9502 19.1169Z" fill="#DFDFDF"/>
</g>
</g>
<defs>
<linearGradient id="paint0_linear_8_1309" x1="172" y1="0.5" x2="172" y2="182.5" gradientUnits="userSpaceOnUse">
<stop stop-color="#5C5C5C"/>
<stop offset="1" stop-opacity="0"/>
</linearGradient>
</defs>
</svg>
