<svg width="345" height="164" viewBox="0 0 345 164" fill="none" xmlns="http://www.w3.org/2000/svg">
<g clip-path="url(#clip0_8_583)">
<mask id="mask0_8_583" style="mask-type:luminance" maskUnits="userSpaceOnUse" x="0" y="0" width="345" height="166">
<path d="M344.5 0H0.5V166H344.5V0Z" fill="white"/>
</mask>
<g mask="url(#mask0_8_583)">
<g opacity="0.7">
<path d="M144.758 65.9054L146.26 65.3345L147.993 62.8226V61.1099L149.727 60.0823L152.038 58.4838L154.465 59.5114L158.048 57.3421L160.474 56.9995L163.248 57.3421L165.675 56.3145L166.715 58.4838L165.675 59.5114L168.333 61.1099H169.835L171.569 62.8226L173.88 63.6219L175.036 62.8226V61.1099H177.578L180.583 62.8226H183.587H186.361L187.863 65.9054L188.557 67.6181L189.828 70.0158L190.752 72.2994V74.1262L192.37 75.4964L193.295 78.2367L195.144 79.4926L196.762 81.4336L197.455 83.2605L198.726 84.0597L200.806 84.5164L204.736 83.2605V86.1149L203.002 88.9694L201.384 91.4813L199.189 93.5365L196.762 96.2768L194.682 98.5604L193.295 101.072L193.988 104.155L195.144 105.639V108.151V110.435L193.988 112.376L191.792 112.947L190.752 114.431L189.25 116.144L189.828 118.998L189.25 120.254L187.632 121.396L186.823 122.424V123.565L186.476 124.936L183.703 128.247L181.161 129.959L178.965 130.987L177.809 129.959L176.307 130.987H174.342L173.533 129.959V128.247L172.609 126.191L170.76 124.022V122.424L170.066 118.998L169.026 116.144L167.524 113.86V111.805L168.333 109.864L169.026 107.58V105.639V104.155L168.333 102.442L167.524 99.9305L166.715 99.0171L165.675 97.4186V95.5917V92.8514V91.4813L164.057 90.2254H161.861L160.937 88.9694L159.434 88.1701L157.47 88.9694L155.043 89.6545H152.038L149.034 90.2254L147.069 89.6545L144.18 87.3709L143.371 86.1149L142.331 84.5164L141.406 83.2605L140.828 82.4612V80.9769L140.02 79.8351L140.828 78.465V76.0673V74.9255V73.5553V71.9569L142.331 70.0158L143.371 67.6181L144.758 65.9054Z" fill="black" fill-opacity="0.7" stroke="white" stroke-opacity="0.3" stroke-width="0.7" stroke-linecap="round" stroke-linejoin="round"/>
<path d="M202.312 109.641L200.274 111.855L198.235 113.016V115.758L197.27 117.762V119.871L198.235 121.031H200.274L201.454 119.871V117.762L202.849 114.387L203.492 111.855V109.641L202.849 108.586L202.312 109.641Z" fill="black" fill-opacity="0.7" stroke="white" stroke-opacity="0.3" stroke-width="0.7" stroke-linecap="round" stroke-linejoin="round"/>
<path d="M283.141 140.295L283.984 138.455H285.911L286.874 139.104L285.911 140.295L283.984 140.944L283.141 140.295Z" fill="black" fill-opacity="0.7" stroke="white" stroke-opacity="0.3" stroke-width="0.7" stroke-linecap="round" stroke-linejoin="round"/>
<path d="M272.918 128.923L270.01 130.172H266.172L264.543 131.081L262.799 131.99L261.984 131.081V130.172L262.799 127.673V124.266V120.744L263.962 118.7L268.149 116.314H270.01L272.918 113.475L273.732 112.452L275.244 110.862L277.687 110.067L279.315 110.862L280.129 109.726L281.641 108.704L284.433 107.909C286.945 107.545 286.72 108.59 286.294 109.158L285.014 110.862L286.294 111.771L289.318 113.475L291.411 110.862V109.158L292.691 107.341L293.272 109.158L294.784 110.862V113.929L295.831 115.292L297.576 118.7L299.321 120.744V122.789L298.39 126.537L296.645 128.923L294.784 130.172L293.272 133.012L291.411 134.489H289.667L288.853 135.284L287.689 135.965L286.294 135.284H284.433L283.037 134.489V133.012L282.455 131.99L281.292 130.172L280.129 131.081L278.733 128.923L277.221 128.355H275.942L272.918 128.923Z" fill="black" fill-opacity="0.7" stroke="white" stroke-opacity="0.3" stroke-width="0.7" stroke-linecap="round" stroke-linejoin="round"/>
<path d="M303.024 143.433H300.566C300.566 142.757 301.46 141.899 301.907 141.555L304.699 140.334L307.156 139.676L309.278 138.455V139.676L307.938 140.334L307.156 141.555H306.039L304.699 142.682L303.024 143.433Z" fill="black" fill-opacity="0.7" stroke="white" stroke-opacity="0.3" stroke-width="0.7" stroke-linecap="round" stroke-linejoin="round"/>
<path d="M312.141 138.454H310.523L311.146 136.779V135.462L312.888 134.744L313.635 132.231L314.382 134.026L315.502 135.462L313.635 136.779L312.141 138.454Z" fill="black" fill-opacity="0.7" stroke="white" stroke-opacity="0.3" stroke-width="0.7" stroke-linecap="round" stroke-linejoin="round"/>
<path d="M102.309 149.852L105.404 151.571L103.111 152.145L101.736 151.571H100.131L100.66 149.852H100.131L97.1504 148.591L95.6602 146.184L93.7116 143.433L94.514 142.401V140.911L93.7116 139.421L92.1067 137.357V135.294L91.5336 129.792L90.7312 124.863V120.278V116.036L88.4386 113.4L85.5729 111.566L83.7388 109.044L81.9048 106.064L80.3 102.281L79.0391 101.708V99.0714L80.3 98.0397L79.0391 96.5495L80.3 94.1423L81.9048 91.6205L82.7072 90.4742V88.8694L81.9048 86.1183V85.3159L82.7072 86.1183L83.7388 85.3159L84.8851 83.9404H86.146L87.2923 82.4502H88.4386L88.7693 83.6407L89.8142 83.0233H91.5336L92.5653 83.9404L94.3993 84.5135L96.5773 83.9404L97.9528 84.5135L100.589 87.7231L101.736 88.8694H103.57L106.206 89.6718L107.352 91.6205L108.155 93.3399V94.7155L109.53 95.5179L110.791 96.5495H112.396L113.198 97.1227L114.803 98.0397H117.21L119.159 99.0714L121.337 100.332L122.598 100.905V102.281V104.23L120.764 107.21L119.159 109.044V111.566V115.119L117.21 118.444L115.606 119.017L113.198 120.278L111.479 121.883V123.487L110.791 126.582L108.843 129.792L107.352 131.167H105.977H104.716L105.404 132.428V134.262L103.914 135.294H102.309V137.357H100.131V138.618L101.048 139.421L100.131 141.484V142.401V143.433L101.048 144.808V146.184L100.131 147.559L101.048 148.591L100.66 149.852H102.309Z" fill="black" fill-opacity="0.7"/>
<path d="M100.66 149.852L100.131 151.571H101.736L103.111 152.145L105.404 151.571L102.309 149.852H100.66ZM100.66 149.852H100.131L97.1504 148.591L95.6602 146.184L93.7116 143.433L94.514 142.401V140.911L93.7116 139.421L92.1067 137.357V135.294L91.5336 129.792L90.7312 124.863V120.278V116.036L88.4386 113.4L85.5729 111.566L83.7388 109.044L81.9048 106.064L80.3 102.281L79.0391 101.708V99.0714L80.3 98.0397L79.0391 96.5495L80.3 94.1423L81.9048 91.6205L82.7072 90.4742V88.8694L81.9048 86.1183V85.3159L82.7072 86.1183L83.7388 85.3159L84.8851 83.9404H86.146L87.2923 82.4502H88.4386L88.7693 83.6407L89.8142 83.0233H91.5336L92.5653 83.9404L94.3993 84.5135L96.5773 83.9404L97.9528 84.5135L100.589 87.7231L101.736 88.8694H103.57L106.206 89.6718L107.352 91.6205L108.155 93.3399V94.7155L109.53 95.5179L110.791 96.5495H112.396L113.198 97.1227L114.803 98.0397H117.21L119.159 99.0714L121.337 100.332L122.598 100.905V102.281V104.23L120.764 107.21L119.159 109.044V111.566V115.119L117.21 118.444L115.606 119.017L113.198 120.278L111.479 121.883V123.487L110.791 126.582L108.843 129.792L107.352 131.167H105.977H104.716L105.404 132.428V134.262L103.914 135.294H102.309V137.357H100.131V138.618L101.048 139.421L100.131 141.484V142.401V143.433L101.048 144.808V146.184L100.131 147.559L101.048 148.591L100.66 149.852Z" stroke="white" stroke-opacity="0.3" stroke-width="0.7" stroke-linecap="round" stroke-linejoin="round"/>
<path d="M298.016 104.04L300.567 106.516L299.755 107.341L298.016 106.516L296.044 104.748L294.885 104.04H293.609L292.798 105.337L290.479 104.748L289.203 104.04H288.044L289.203 102.272L288.044 101.21L284.797 99.9136L283.058 99.324V98.145L281.898 96.1406H284.797V97.0839L286.073 99.324L287.232 98.145L289.203 97.0839L291.29 98.145L294.885 99.324L297.32 101.21L298.016 104.04Z" fill="black" fill-opacity="0.7" stroke="white" stroke-opacity="0.3" stroke-width="0.7" stroke-linecap="round" stroke-linejoin="round"/>
<path d="M265.659 90.6208L263.201 92.2441L260.742 93.3264L261.234 95.8154L262.463 97.547L265.659 98.6292H268.117V97.547L269.961 95.2743L270.699 94.4086V92.8935L269.961 91.5948L270.699 89.7551L269.961 88.6729H268.117L265.659 90.6208Z" fill="black" fill-opacity="0.7" stroke="white" stroke-opacity="0.3" stroke-width="0.7" stroke-linecap="round" stroke-linejoin="round"/>
<path d="M263.164 102.363L265.72 103.215L264.442 103.608L261.886 103.215H259.912H257.589L257.008 102.363H258.982H260.957H263.164Z" fill="black" fill-opacity="0.7" stroke="white" stroke-opacity="0.3" stroke-width="0.7" stroke-linecap="round" stroke-linejoin="round"/>
<path d="M257.009 98.4544V100.075C257.009 101.372 255.574 101.192 254.856 100.94L253.421 99.3188L252.089 96.2933L250.039 93.1596L248.297 91.4308V89.918L251.679 91.4308L252.704 93.1596L254.856 94.7805V95.861L257.009 98.4544Z" fill="black" fill-opacity="0.7" stroke="white" stroke-opacity="0.3" stroke-width="0.7" stroke-linecap="round" stroke-linejoin="round"/>
<path d="M270.695 79.1738L271.288 76.7597C271.525 75.7941 272.256 76.3574 272.592 76.7597V79.1738L273.896 80.2602L275.318 82.5536L277.333 84.9676L278.163 87.261V89.9165H276.503L275.318 88.5888L273.896 85.5712L272.592 82.5536L270.695 79.1738Z" fill="black" fill-opacity="0.7" stroke="white" stroke-opacity="0.3" stroke-width="0.7" stroke-linecap="round" stroke-linejoin="round"/>
<path d="M253.37 92.0509L252.474 88.965L250.781 85.9933V82.4502L251.976 83.8217V85.3076L252.474 86.5648L253.37 87.822L255.062 88.965L255.759 90.908V93.6511H255.062L253.37 92.0509Z" fill="black" fill-opacity="0.7" stroke="white" stroke-opacity="0.3" stroke-width="0.7" stroke-linecap="round" stroke-linejoin="round"/>
<path d="M243.394 73.8275L242.353 71.901L238.765 72.4676L237.955 74.7341L236.103 75.9807L232.632 79.1538L232.053 80.9669V84.48C231.775 86.6558 230.24 86.2932 229.507 85.8399L227.424 81.7602L224.878 75.9807V73.1476H223.374H221.753V71.3344H220.017L218.05 68.6146L216.777 69.6345L213.537 68.6146H210.644L208.908 67.2547L204.857 66.8014L203.006 64.6482L201.733 63.6283L200.923 64.6482L202.311 66.2348L203.006 68.6146H204.857L206.13 70.2011L208.213 68.6146L209.371 69.6345L211.801 71.3344V73.1476L209.949 75.9807L207.519 77.1139L204.857 78.5871L202.311 79.947L200.344 81.7602H197.914L196.757 79.947V77.9072L195.484 75.9807L193.285 73.8275V71.901L189.813 67.9346L188.772 65.2149L187.499 66.2348L186.11 62.4951H188.193L188.772 59.7753V57.2822L186.804 57.9621L184.258 57.2822H181.481L179.976 54.3357V53.3158H178.588L177.199 54.3357L177.893 55.9223L177.199 57.2822L175.579 56.4889L176.157 55.3556L174.19 54.3357L173.38 51.3893L171.297 50.1427L168.288 48.1029C166.992 46.9243 167.362 48.2162 167.709 49.0095L169.214 50.7093C170.41 51.5782 172.616 53.3158 171.876 53.3158C171.135 53.3158 171.181 55.0534 171.297 55.9223L169.214 53.3158L165.974 50.7093L164.353 49.5761L161.46 50.7093H159.84L158.799 52.5225L156.368 54.3357V56.4889L153.475 57.2822H150.814L148.73 55.9223L149.541 50.7093H154.285L155.327 49.5761V47.1963L153.475 45.1564L156.368 44.5898L158.799 43.2299L162.039 40.7368H163.312L164.353 39.7169V37.5637L165.626 36.5438V38.017L167.131 37.5637V35.9772L165.974 35.1839L164.353 35.9772L162.618 35.1839V32.2375L167.709 28.4978L171.297 25.8913L174.19 24.3048H179.166L182.175 25.8913L186.804 26.4579C188.286 27.6365 187.421 28.3089 186.804 28.4978H184.953L182.175 27.5912L184.953 29.8577H186.804L188.193 28.4978L189.813 27.5912L190.507 26.4579L192.475 27.5912L195.484 26.4579H199.418L203.469 25.8913H206.015L204.626 24.3048L205.205 23.1715H207.635L209.255 24.3048L211.685 23.1715L213.537 22.0383H216.083V20.7917L219.902 19.8851H222.332L223.605 18.9785H225.804L228.003 19.8851H231.243L232.053 20.7917L231.243 22.0383L235.525 22.6049H236.451H238.534H240.501H244.204L248.37 24.3048H250.801H252.768L253.346 22.6049L257.165 23.1715L261.679 24.3048H265.613H268.275L271.284 25.8913H276.955L277.996 25.2114H280.773L285.055 25.8913L288.874 27.0245L291.305 27.9311H293.966L295.586 29.631H292.23L290.494 28.4978L288.874 29.631L291.305 30.7642V32.0108L288.874 33.7107H286.444C284.037 34.3453 284.515 35.4105 285.055 35.8638L287.023 36.6571L287.601 39.6035V42.6633H286.444L283.435 39.6035L281.468 36.6571L282.394 32.9174L281.468 32.0108L280.079 32.9174H278.575H276.955V34.8439H274.177H270.011L268.275 35.8638L267.118 38.5836L268.969 39.6035H270.821L273.367 40.6235H274.756L276.955 42.6633L278.575 44.2498V45.4964L279.269 47.7629L277.996 47.083L276.955 45.4964L275.334 43.2299H274.756L275.334 45.4964V47.7629L274.177 50.4827H272.326L271.284 51.3893L270.821 52.7492V53.7691L271.284 54.9023L273.367 56.3756L274.177 57.9621L273.367 59.2087H271.284L270.821 57.1688L268.275 55.469L267.118 53.7691C265.637 54.585 265.112 54.1091 265.035 53.7691L263.646 52.7492L261.679 54.9023L263.646 56.3756H265.035L267.118 57.1688L264.456 58.8687L267.118 61.2485L268.275 62.9484L268.969 65.3282L268.275 68.3879L267.118 70.6544L264.456 71.901L261.679 72.4676L260.174 73.8275L258.67 72.4676L257.165 73.4875L256.471 75.3007L258.67 77.9072L260.174 80.4003V83.2334L258.67 84.48L257.628 85.8399H256.471V84.48L254.504 83.2334L252.189 81.7602H251.379V83.2334L250.222 81.7602L249.296 79.1538L248.37 77.9072L247.213 78.5871H246.056V77.1139L245.246 75.3007L243.394 73.8275Z" fill="black" fill-opacity="0.7" stroke="white" stroke-opacity="0.3" stroke-width="0.7" stroke-linecap="round" stroke-linejoin="round"/>
<path d="M276.205 61.9348L275.672 60.2487L275.992 59.1647L276.952 58.0808H278.232L279.726 56.9968L281.219 55.0698L280.579 53.5041L279.405 50.9748V49.4091V47.6025L280.792 48.6865L282.712 49.4091L282.179 50.6135H280.792V52.4201H281.752L282.712 54.1063V55.4311L283.139 56.9968V58.9239H281.219L280.046 60.2487L278.765 60.0078H277.805L276.952 59.526L276.419 60.0078L277.272 61.0918L276.952 62.537L276.205 61.9348Z" fill="black" fill-opacity="0.7" stroke="white" stroke-opacity="0.3" stroke-width="0.7" stroke-linecap="round" stroke-linejoin="round"/>
<path d="M204.233 57.5593L201.433 55.8023V53.1668L198.516 50.4215V48.8841L201.433 46.3584L203.649 48.0056L202.716 48.8841H201.433V50.4215L203.649 51.4098H205.166L205.983 52.6177L204.233 53.1668L205.166 54.7041L205.983 56.3513L204.233 57.5593Z" fill="black" fill-opacity="0.7" stroke="white" stroke-opacity="0.3" stroke-width="0.7" stroke-linecap="round" stroke-linejoin="round"/>
<path d="M186.283 51.8432L183.829 52.5807L182.336 50.7369L182.976 49.0776L185.109 47.6025L186.283 49.0776H187.99V47.6025H190.017V49.0776L191.83 50.0916L193.537 51.8432L191.83 52.5807L189.163 51.8432H186.283Z" fill="black" fill-opacity="0.7" stroke="white" stroke-opacity="0.3" stroke-width="0.7" stroke-linecap="round" stroke-linejoin="round"/>
<path d="M156.947 37.6652L159.062 40.9651L159.934 41.7571L159.062 42.945L156.076 43.869H153.711L154.458 41.7571V40.9651L156.076 39.1171L154.458 37.6652V36.4772V35.1572H156.076L156.947 37.6652Z" fill="black" fill-opacity="0.7" stroke="white" stroke-opacity="0.3" stroke-width="0.7" stroke-linecap="round" stroke-linejoin="round"/>
<path d="M149.977 39.9345L152.316 39.1159C154.188 38.461 153.778 39.3887 153.34 39.9345L152.316 41.6887L149.977 42.6242V39.9345Z" fill="black" fill-opacity="0.7" stroke="white" stroke-opacity="0.3" stroke-width="0.7" stroke-linecap="round" stroke-linejoin="round"/>
<path d="M141.266 28.5606L144.098 27.6895H147.317L148.733 28.5606L145.9 30.1785H142.811L141.266 28.5606Z" fill="black" fill-opacity="0.7" stroke="white" stroke-opacity="0.3" stroke-width="0.7" stroke-linecap="round" stroke-linejoin="round"/>
<path d="M120.477 27.5978L121.64 25.754C123.221 25.1087 123.229 23.795 123.035 23.2188L121.64 20.6836L119.082 18.6094H117.106L115.129 17.8028V16.5352H119.082L121.64 15.2676L125.245 14.5762L130.942 15.2676L134.43 14H141.174H145.941L148.732 15.2676L146.987 17.8028L145.941 19.7618L143.732 20.6836L141.988 21.7208L143.732 23.2188L141.988 24.1407L138.732 25.1778L136.407 25.754L134.43 26.5606L130.942 27.5978L127.686 29.3263L125.245 32.6681H123.035L120.477 30.8244V27.5978Z" fill="black" fill-opacity="0.7" stroke="white" stroke-opacity="0.3" stroke-width="0.7" stroke-linecap="round" stroke-linejoin="round"/>
<path d="M108.614 16.7804L106.418 19.0311L109.192 20.2227L111.387 19.0311L114.161 17.9719L119.246 16.7804L122.597 14L116.588 14.7944H112.543V16.7804H111.387H108.614Z" fill="black" fill-opacity="0.7" stroke="white" stroke-opacity="0.3" stroke-width="0.7" stroke-linecap="round" stroke-linejoin="round"/>
<path d="M103.528 21.4668H101.239L98.9492 22.7113L101.239 24.069H103.528H106.161L108.221 26.5581V27.3501H106.161L104.787 28.934L106.161 30.6311L108.908 31.4231L110.625 29.8392V28.1421H111.541C114.105 28.7756 114.059 27.8781 113.716 27.3501L112.342 25.5398L110.625 23.5033L108.908 22.7113H107.535L106.161 22.0325L103.528 21.4668Z" fill="black" fill-opacity="0.7" stroke="white" stroke-opacity="0.3" stroke-width="0.7" stroke-linecap="round" stroke-linejoin="round"/>
<path d="M78.2352 21.4668L76.3367 22.1042L74.0586 22.7417L74.818 23.7434L76.3367 22.7417H78.868L79.8805 23.7434L78.2352 25.2004H80.5133H82.0321H84.0571L86.3353 24.8362L88.9931 24.563V23.7434V22.7417H88.1071H86.9681L85.829 22.1042L84.5634 22.7417L82.918 22.1042L80.5133 21.4668H78.2352Z" fill="black" fill-opacity="0.7" stroke="white" stroke-opacity="0.3" stroke-width="0.7" stroke-linecap="round" stroke-linejoin="round"/>
<path d="M111.371 44.1175L113.887 45.6109L111.371 46.3576H108.856L107.664 45.6109L108.856 44.7397L111.371 42.624V44.1175Z" fill="black" fill-opacity="0.7" stroke="white" stroke-opacity="0.3" stroke-width="0.7" stroke-linecap="round" stroke-linejoin="round"/>
<path d="M92.9676 52.9716L88.9412 56.0319L88.366 57.1653V59.6588L85.4899 60.6789L83.6492 62.1524L81.4635 63.6258L82.3838 66.2327V68.2728L80.8882 69.0662L80.198 68.2728V65.3259L78.1272 64.3059L76.4016 63.6258L73.7557 65.3259L70.5345 64.3059L66.8532 66.2327L66.0479 68.2728L64.7824 72.4665L66.0479 75.0734L67.8885 76.6602L70.5345 75.7534L72.1451 73.5999C74.4459 72.8745 74.1775 73.9022 73.7557 74.5067L72.7203 78.247L73.7557 79.0403H76.4016V83.3474L78.7024 85.9542H80.8882L78.7024 87.4277L75.8264 85.9542L73.7557 83.3474L72.7203 81.4205H71.5699L68.5788 80.2871L66.8532 78.247H62.2515L57.1897 75.0734V72.4665L55.0039 69.0662L53.1632 66.2327V63.6258H52.0128V65.3259L53.1632 67.4794V71.2197L52.0128 69.8596L50.9774 67.4794L50.1721 64.3059V62.1524L48.3315 59.6588L47.5262 53.765L50.1721 50.2514C51.1691 49.0047 53.3933 46.4205 54.3136 46.0578C55.464 45.6044 54.0835 43.4509 52.0128 43.4509C52.0128 42.0001 52.7797 38.9172 53.1632 37.5571L52.0128 36.0837L49.5969 34.3835L46.3757 33.1368L42.6944 34.3835H41.544L37.6326 36.0837L30.5 38.8039L34.5265 35.517L33.0309 34.3835L34.5265 33.8168L35.5618 32.0033H37.6326L39.3582 30.8699C38.1618 30.3259 38.3228 29.5098 38.5529 29.1698H40.8537L42.6944 28.2631C42.1422 26.8123 43.4614 26.4496 44.19 26.4496L45.6855 25.7695L50.1721 24.7494H53.5083L61.4462 25.7695L64.6674 27.0163L69.3841 25.7695H72.3752H76.0565L79.2777 27.583L82.3838 28.2631V27.583L85.1448 27.0163L86.6403 27.583L88.9412 27.0163H90.6668V25.7695H91.8172V27.0163L93.5428 25.7695V24.7494L95.4985 23.9561L96.0737 25.7695L97.1091 27.0163L99.8701 25.7695H101.596V27.0163L99.8701 28.2631H97.1091L96.4715 29.2952L98.9498 30.0765L98.2595 31.55L95.4985 30.8699L96.4715 29.2952L96.0737 29.1698L94.4632 30.0765L91.8172 30.8699L89.7464 32.0033L86.6403 33.1368L85.1448 35.517L87.4456 37.1037L88.9412 38.2372L91.357 38.8039L90.6668 41.5241L91.8172 42.8842L93.5428 41.5241V40.0506L95.4985 39.1439L97.7994 37.1037V35.517L98.9498 33.1368L100.905 32.0033L104.702 33.1368V34.3835L105.852 36.0837L108.958 34.3835L109.649 38.2372L110.914 40.0506L112.64 40.6174L110.914 42.2041L108.383 43.4509H105.852H102.631L101.596 45.2644H103.551L102.631 47.6446L105.277 48.778L102.631 50.2514H100.905V48.778H99.8701L97.1091 50.2514L95.4985 52.1783L92.9676 52.9716Z" fill="black" fill-opacity="0.7"/>
<path d="M96.4715 29.2952L97.1091 28.2631H99.8701L101.596 27.0163V25.7695H99.8701L97.1091 27.0163L96.0737 25.7695L95.4985 23.9561L93.5428 24.7494V25.7695L91.8172 27.0163V25.7695H90.6668V27.0163H88.9412L86.6403 27.583L85.1448 27.0163L82.3838 27.583V28.2631L79.2777 27.583L76.0565 25.7695H72.3752H69.3841L64.6674 27.0163L61.4462 25.7695L53.5083 24.7494H50.1721L45.6855 25.7695L44.19 26.4496C43.4614 26.4496 42.1422 26.8123 42.6944 28.2631L40.8537 29.1698H38.5529C38.3228 29.5098 38.1618 30.3259 39.3582 30.8699L37.6326 32.0033H35.5618L34.5265 33.8168L33.0309 34.3835L34.5265 35.517L30.5 38.8039L37.6326 36.0837L41.544 34.3835H42.6944L46.3757 33.1368L49.5969 34.3835L52.0128 36.0837L53.1632 37.5571C52.7797 38.9172 52.0128 42.0001 52.0128 43.4509C54.0835 43.4509 55.464 45.6044 54.3136 46.0578C53.3933 46.4205 51.1691 49.0047 50.1721 50.2514L47.5262 53.765L48.3315 59.6588L50.1721 62.1524V64.3059L50.9774 67.4794L52.0128 69.8596L53.1632 71.2197V67.4794L52.0128 65.3259V63.6258H53.1632V66.2327L55.0039 69.0662L57.1897 72.4665V75.0734L62.2515 78.247H66.8532L68.5788 80.2871L71.5699 81.4205H72.7203L73.7557 83.3474L75.8264 85.9542L78.7024 87.4277L80.8882 85.9542H78.7024L76.4016 83.3474V79.0403H73.7557L72.7203 78.247L73.7557 74.5067C74.1775 73.9022 74.4459 72.8745 72.1451 73.5999L70.5345 75.7534L67.8885 76.6602L66.0479 75.0734L64.7824 72.4665L66.0479 68.2728L66.8532 66.2327L70.5345 64.3059L73.7557 65.3259L76.4016 63.6258L78.1272 64.3059L80.198 65.3259V68.2728L80.8882 69.0662L82.3838 68.2728V66.2327L81.4635 63.6258L83.6492 62.1524L85.4899 60.6789L88.366 59.6588V57.1653L88.9412 56.0319L92.9676 52.9716L95.4985 52.1783L97.1091 50.2514L99.8701 48.778H100.905V50.2514H102.631L105.277 48.778L102.631 47.6446L103.551 45.2644H101.596L102.631 43.4509H105.852H108.383L110.914 42.2041L112.64 40.6174L110.914 40.0506L109.649 38.2372L108.958 34.3835L105.852 36.0837L104.702 34.3835V33.1368L100.905 32.0033L98.9498 33.1368L97.7994 35.517V37.1037L95.4985 39.1439L93.5428 40.0506V41.5241L91.8172 42.8842L90.6668 41.5241L91.357 38.8039L88.9412 38.2372L87.4456 37.1037L85.1448 35.517L86.6403 33.1368L89.7464 32.0033L91.8172 30.8699L94.4632 30.0765L96.0737 29.1698L96.4715 29.2952ZM96.4715 29.2952L98.9498 30.0765L98.2595 31.55L95.4985 30.8699L96.4715 29.2952Z" stroke="white" stroke-opacity="0.3" stroke-width="0.7" stroke-linecap="round" stroke-linejoin="round"/>
<path d="M89.5341 76.2274H86.5039L87.3697 73.7383H88.4519L91.4821 74.6717L89.5341 76.2274Z" fill="black" fill-opacity="0.7" stroke="white" stroke-opacity="0.3" stroke-width="0.7" stroke-linecap="round" stroke-linejoin="round"/>
<path d="M81.7859 71.249H77.793L78.8819 71.8943L80.9389 72.724L82.7538 73.7381L86.5048 73.2772L85.2948 72.724L81.7859 71.249Z" fill="black" fill-opacity="0.7" stroke="white" stroke-opacity="0.3" stroke-width="0.7" stroke-linecap="round" stroke-linejoin="round"/>
<path d="M80.2812 46.7924H83.922L81.5815 48.274L80.2812 50.447L80.9314 51.336L82.4917 50.447L83.922 47.7802H86.2625V49.3605L88.993 48.274V46.7924H87.5627L86.2625 46.1998L84.9622 45.1133H81.5815L80.2812 46.7924Z" fill="black" fill-opacity="0.7" stroke="white" stroke-opacity="0.3" stroke-width="0.7" stroke-linecap="round" stroke-linejoin="round"/>
<path d="M100.195 20.2231L106.294 21.4676L107.663 20.2231H104.053L101.813 18.9785L100.195 20.2231Z" fill="black" fill-opacity="0.7" stroke="white" stroke-opacity="0.3" stroke-width="0.7" stroke-linecap="round" stroke-linejoin="round"/>
<path d="M106.417 15.2441L105.67 17.7332H104.177L102.684 16.8443L104.177 15.2441H106.417Z" fill="black" fill-opacity="0.7" stroke="white" stroke-opacity="0.3" stroke-width="0.7" stroke-linecap="round" stroke-linejoin="round"/>
<path d="M169.982 38.2202L171.093 36.1858L171.834 34.7498L172.451 33.6728L171.093 32.2368V30.9205L173.685 30.0828L175.29 27.6895L177.018 29.0058L174.673 30.9205L175.29 33.0745H179.486L181.091 33.6728L179.486 34.7498H177.018V36.1858H175.29V38.2202L173.685 39.2972H172.451L169.982 40.1349L168.748 39.2972H166.156L167.761 38.2202H169.982Z" fill="black" fill-opacity="0.7" stroke="white" stroke-opacity="0.3" stroke-width="0.7" stroke-linecap="round" stroke-linejoin="round"/>
<path d="M270.695 98.4297L271.732 95.8529C271.179 95.0462 271.963 94.2471 272.424 93.9483C272.424 93.4105 275.42 93.7242 276.918 93.9483C276.918 95.7409 274.767 95.1434 273.691 94.6205L272.885 95.4048L273.23 96.5251H274.959L273.691 97.5335L274.383 99.102L273.691 99.8862L272.885 98.4297L272.424 99.102V101.119L270.695 100.783V98.4297Z" fill="black" fill-opacity="0.7" stroke="white" stroke-opacity="0.3" stroke-width="0.7" stroke-linecap="round" stroke-linejoin="round"/>
<g filter="url(#filter0_d_8_583)">
<path d="M56.5 63.668C58.1569 63.668 59.5 62.3248 59.5 60.668C59.5 59.0111 58.1569 57.668 56.5 57.668C54.8431 57.668 53.5 59.0111 53.5 60.668C53.5 62.3248 54.8431 63.668 56.5 63.668Z" fill="#2873BD"/>
</g>
<g filter="url(#filter1_d_8_583)">
<path d="M148.594 72.3799C150.251 72.3799 151.594 71.0367 151.594 69.3799C151.594 67.723 150.251 66.3799 148.594 66.3799C146.937 66.3799 145.594 67.723 145.594 69.3799C145.594 71.0367 146.937 72.3799 148.594 72.3799Z" fill="#2873BD"/>
</g>
<g filter="url(#filter2_d_8_583)">
<path d="M102.547 110.961C104.204 110.961 105.547 109.618 105.547 107.961C105.547 106.304 104.204 104.961 102.547 104.961C100.89 104.961 99.547 106.304 99.547 107.961C99.547 109.618 100.89 110.961 102.547 110.961Z" fill="#2873BD"/>
</g>
<g filter="url(#filter3_d_8_583)">
<path d="M172.5 97C174.157 97 175.5 95.6569 175.5 94C175.5 92.3431 174.157 91 172.5 91C170.843 91 169.5 92.3431 169.5 94C169.5 95.6569 170.843 97 172.5 97Z" fill="#2873BD"/>
</g>
<g filter="url(#filter4_d_8_583)">
<path d="M175.5 46C177.157 46 178.5 44.6569 178.5 43C178.5 41.3431 177.157 40 175.5 40C173.843 40 172.5 41.3431 172.5 43C172.5 44.6569 173.843 46 175.5 46Z" fill="#2873BD"/>
</g>
<g filter="url(#filter5_d_8_583)">
<path d="M230.5 75C232.157 75 233.5 73.6569 233.5 72C233.5 70.3431 232.157 69 230.5 69C228.843 69 227.5 70.3431 227.5 72C227.5 73.6569 228.843 75 230.5 75Z" fill="#2873BD"/>
</g>
<g filter="url(#filter6_d_8_583)">
<path d="M280.516 125.896C282.173 125.896 283.516 124.553 283.516 122.896C283.516 121.239 282.173 119.896 280.516 119.896C278.859 119.896 277.516 121.239 277.516 122.896C277.516 124.553 278.859 125.896 280.516 125.896Z" fill="#2873BD"/>
</g>
<path d="M58.5 60.9997C76 57.333 117.9 53.7997 145.5 68.9997" stroke="#2873BD" stroke-width="0.6" stroke-linecap="round" stroke-dasharray="2 3"/>
<path d="M57.5462 60.6205C82.5011 43.5 121.001 32.5 174.5 42" stroke="#2873BD" stroke-width="0.6" stroke-linecap="round" stroke-dasharray="2 3"/>
<path d="M231.68 72.4395C207.43 47.0781 192.985 43.4509 175.5 42.9994" stroke="#2873BD" stroke-width="0.6" stroke-linecap="round" stroke-dasharray="2 3"/>
<path d="M230 71.9997C211.5 51.9994 161 55.3213 149.5 68.4995" stroke="#2873BD" stroke-width="0.6" stroke-linecap="round" stroke-dasharray="2 3"/>
<path d="M229.462 72.3285C202.502 69.9998 183.501 79.9998 173.002 94.4997" stroke="#2873BD" stroke-width="0.6" stroke-linecap="round" stroke-dasharray="2 3"/>
<path d="M175 42.5C162 45.5 153.5 53.5 149 68" stroke="#2873BD" stroke-width="0.6" stroke-linecap="round" stroke-dasharray="2 3"/>
<path d="M102.5 108C95.9803 82.9325 82.7857 65.1027 56.5 61" stroke="#2873BD" stroke-width="0.6" stroke-linecap="round" stroke-dasharray="2 3"/>
<path d="M103 107.5C105 100.999 113.5 80.9995 149 70.2822" stroke="#2873BD" stroke-width="0.6" stroke-linecap="round" stroke-dasharray="2 3"/>
<path d="M173.5 95C170.963 88.9639 166.524 77.8214 147.5 69" stroke="#2873BD" stroke-width="0.6" stroke-linecap="round" stroke-dasharray="2 3"/>
<path d="M172.5 93.9992C160.583 91.5323 134.869 80.9439 103.501 107.551" stroke="#2873BD" stroke-width="0.6" stroke-linecap="round" stroke-dasharray="2 3"/>
<path d="M280.5 122C277.437 99.0557 257 74.4996 231.5 72.585" stroke="#2873BD" stroke-width="0.6" stroke-linecap="round" stroke-dasharray="2 3"/>
<path d="M280.5 122C273.75 109.151 214.689 91.3625 172.5 94.3278" stroke="#2873BD" stroke-width="0.6" stroke-linecap="round" stroke-dasharray="2 3"/>
<path d="M280.5 122C273.923 85.7482 259.5 39.9996 175.5 42.9996" stroke="#2873BD" stroke-width="0.6" stroke-linecap="round" stroke-dasharray="2 3"/>
</g>
</g>
</g>
<defs>
<filter id="filter0_d_8_583" x="18.5218" y="40.1789" width="75.9564" height="75.9564" filterUnits="userSpaceOnUse" color-interpolation-filters="sRGB">
<feFlood flood-opacity="0" result="BackgroundImageFix"/>
<feColorMatrix in="SourceAlpha" type="matrix" values="0 0 0 0 0 0 0 0 0 0 0 0 0 0 0 0 0 0 127 0" result="hardAlpha"/>
<feOffset dy="17.4891"/>
<feGaussianBlur stdDeviation="17.4891"/>
<feColorMatrix type="matrix" values="0 0 0 0 0.12549 0 0 0 0 0.12549 0 0 0 0 0.12549 0 0 0 0.05 0"/>
<feBlend mode="normal" in2="BackgroundImageFix" result="effect1_dropShadow_8_583"/>
<feBlend mode="normal" in="SourceGraphic" in2="effect1_dropShadow_8_583" result="shape"/>
</filter>
<filter id="filter1_d_8_583" x="110.616" y="48.8908" width="75.9564" height="75.9564" filterUnits="userSpaceOnUse" color-interpolation-filters="sRGB">
<feFlood flood-opacity="0" result="BackgroundImageFix"/>
<feColorMatrix in="SourceAlpha" type="matrix" values="0 0 0 0 0 0 0 0 0 0 0 0 0 0 0 0 0 0 127 0" result="hardAlpha"/>
<feOffset dy="17.4891"/>
<feGaussianBlur stdDeviation="17.4891"/>
<feColorMatrix type="matrix" values="0 0 0 0 0.12549 0 0 0 0 0.12549 0 0 0 0 0.12549 0 0 0 0.05 0"/>
<feBlend mode="normal" in2="BackgroundImageFix" result="effect1_dropShadow_8_583"/>
<feBlend mode="normal" in="SourceGraphic" in2="effect1_dropShadow_8_583" result="shape"/>
</filter>
<filter id="filter2_d_8_583" x="64.5688" y="87.4718" width="75.9564" height="75.9564" filterUnits="userSpaceOnUse" color-interpolation-filters="sRGB">
<feFlood flood-opacity="0" result="BackgroundImageFix"/>
<feColorMatrix in="SourceAlpha" type="matrix" values="0 0 0 0 0 0 0 0 0 0 0 0 0 0 0 0 0 0 127 0" result="hardAlpha"/>
<feOffset dy="17.4891"/>
<feGaussianBlur stdDeviation="17.4891"/>
<feColorMatrix type="matrix" values="0 0 0 0 0.12549 0 0 0 0 0.12549 0 0 0 0 0.12549 0 0 0 0.05 0"/>
<feBlend mode="normal" in2="BackgroundImageFix" result="effect1_dropShadow_8_583"/>
<feBlend mode="normal" in="SourceGraphic" in2="effect1_dropShadow_8_583" result="shape"/>
</filter>
<filter id="filter3_d_8_583" x="134.522" y="73.5109" width="75.9564" height="75.9564" filterUnits="userSpaceOnUse" color-interpolation-filters="sRGB">
<feFlood flood-opacity="0" result="BackgroundImageFix"/>
<feColorMatrix in="SourceAlpha" type="matrix" values="0 0 0 0 0 0 0 0 0 0 0 0 0 0 0 0 0 0 127 0" result="hardAlpha"/>
<feOffset dy="17.4891"/>
<feGaussianBlur stdDeviation="17.4891"/>
<feColorMatrix type="matrix" values="0 0 0 0 0.12549 0 0 0 0 0.12549 0 0 0 0 0.12549 0 0 0 0.05 0"/>
<feBlend mode="normal" in2="BackgroundImageFix" result="effect1_dropShadow_8_583"/>
<feBlend mode="normal" in="SourceGraphic" in2="effect1_dropShadow_8_583" result="shape"/>
</filter>
<filter id="filter4_d_8_583" x="137.522" y="22.5109" width="75.9564" height="75.9564" filterUnits="userSpaceOnUse" color-interpolation-filters="sRGB">
<feFlood flood-opacity="0" result="BackgroundImageFix"/>
<feColorMatrix in="SourceAlpha" type="matrix" values="0 0 0 0 0 0 0 0 0 0 0 0 0 0 0 0 0 0 127 0" result="hardAlpha"/>
<feOffset dy="17.4891"/>
<feGaussianBlur stdDeviation="17.4891"/>
<feColorMatrix type="matrix" values="0 0 0 0 0.12549 0 0 0 0 0.12549 0 0 0 0 0.12549 0 0 0 0.05 0"/>
<feBlend mode="normal" in2="BackgroundImageFix" result="effect1_dropShadow_8_583"/>
<feBlend mode="normal" in="SourceGraphic" in2="effect1_dropShadow_8_583" result="shape"/>
</filter>
<filter id="filter5_d_8_583" x="192.522" y="51.5109" width="75.9564" height="75.9564" filterUnits="userSpaceOnUse" color-interpolation-filters="sRGB">
<feFlood flood-opacity="0" result="BackgroundImageFix"/>
<feColorMatrix in="SourceAlpha" type="matrix" values="0 0 0 0 0 0 0 0 0 0 0 0 0 0 0 0 0 0 127 0" result="hardAlpha"/>
<feOffset dy="17.4891"/>
<feGaussianBlur stdDeviation="17.4891"/>
<feColorMatrix type="matrix" values="0 0 0 0 0.12549 0 0 0 0 0.12549 0 0 0 0 0.12549 0 0 0 0.05 0"/>
<feBlend mode="normal" in2="BackgroundImageFix" result="effect1_dropShadow_8_583"/>
<feBlend mode="normal" in="SourceGraphic" in2="effect1_dropShadow_8_583" result="shape"/>
</filter>
<filter id="filter6_d_8_583" x="242.538" y="102.407" width="75.9564" height="75.9564" filterUnits="userSpaceOnUse" color-interpolation-filters="sRGB">
<feFlood flood-opacity="0" result="BackgroundImageFix"/>
<feColorMatrix in="SourceAlpha" type="matrix" values="0 0 0 0 0 0 0 0 0 0 0 0 0 0 0 0 0 0 127 0" result="hardAlpha"/>
<feOffset dy="17.4891"/>
<feGaussianBlur stdDeviation="17.4891"/>
<feColorMatrix type="matrix" values="0 0 0 0 0.12549 0 0 0 0 0.12549 0 0 0 0 0.12549 0 0 0 0.05 0"/>
<feBlend mode="normal" in2="BackgroundImageFix" result="effect1_dropShadow_8_583"/>
<feBlend mode="normal" in="SourceGraphic" in2="effect1_dropShadow_8_583" result="shape"/>
</filter>
<clipPath id="clip0_8_583">
<rect width="344" height="166" fill="white" transform="translate(0.5)"/>
</clipPath>
</defs>
</svg>
