<svg xmlns="http://www.w3.org/2000/svg" width="1081" height="822" viewBox="0 0 1081 822" fill="none">
<path d="M655.67 126C725.34 126 795 126 864.66 126C907.27 126 944.66 158.8 948.56 201.19C950.84 226.02 951.97 251.23 947.51 275.92C940.39 315.31 904.66 344.04 864.54 344.09C855.21 344.1 845.87 344.15 836.54 344.08C824.3 343.98 815.09 335.02 814.96 323.21C814.82 311.26 824.15 302 836.53 301.78C847.52 301.58 858.56 302.01 869.47 300.98C890.04 299.04 906.69 280.16 906.82 259.44C906.93 243.27 906.91 227.11 906.82 210.94C906.71 188.96 888.7 170.04 866.76 168.72C865.1 168.62 863.43 168.56 861.77 168.56C724.44 168.56 587.12 168.54 449.79 168.56C426.5 168.56 409.14 182.98 405.2 205.51C404.83 207.63 404.75 209.82 404.74 211.97C404.7 228.64 404.72 245.3 404.72 261.97C404.73 287.28 423.49 306.24 448.85 306.3C490.18 306.4 531.51 306.24 572.84 306.41C579.96 306.44 587.17 307.03 594.19 308.19C635.16 314.95 669.88 350.56 675.68 391.63C676.44 397.05 676.87 402.57 676.88 408.04C676.96 482.7 676.94 557.37 676.92 632.03C676.92 643.88 670.93 651.76 660.15 654.26C647.87 657.11 635.5 647.95 634.69 635.38C634.56 633.39 634.62 631.38 634.62 629.38C634.62 556.38 634.63 483.39 634.61 410.39C634.61 391.75 628.11 375.88 613.94 363.5C602.39 353.41 588.73 348.91 573.52 348.9C531.02 348.87 488.52 348.92 446.03 348.88C404.34 348.85 366.56 315.41 363.02 273.79C360.78 247.45 359.53 220.75 364.04 194.55C370.81 155.24 406.88 126.01 446.68 126C516.34 125.99 586.01 126 655.67 126Z" fill="#ffffff"/>
<path d="M697.89 259.1C704.59 265.85 710.48 271.24 715.75 277.18C746.83 312.28 762.73 353.24 762.73 400.23C762.73 483.73 762.73 567.23 762.73 650.73C762.73 695.94 726.69 732.06 681.57 732.09C661.07 732.1 640.57 732.12 620.07 732.09C576.23 732.02 539.87 695.64 539.86 651.83C539.85 568.5 539.84 485.16 539.87 401.83C539.87 391.42 547.44 382.51 557.25 381.12C568.22 379.56 578.18 385.39 581.17 395.48C582.1 398.61 582.35 402.04 582.35 405.33C582.41 486 582.78 566.67 582.16 647.33C581.98 670.28 598.72 690.55 624.74 689.86C642.73 689.39 660.74 689.79 678.74 689.76C703.48 689.72 720.16 673.11 720.17 648.38C720.2 565.88 720.22 483.38 720.17 400.88C720.13 329.45 669.19 270.54 598.41 260.07C593.98 259.41 589.45 259.13 584.97 259.12C547.8 259.05 510.64 259.1 473.47 259.04C470.17 259.04 466.73 258.93 463.59 258.05C452.4 254.9 446.45 244.86 447.98 232.38C449.25 222.03 458.28 213.93 469.22 213.33C469.88 213.29 470.55 213.31 471.22 213.31C594.22 213.31 717.22 213.3 840.22 213.32C857.22 213.32 868.08 228.18 862.62 244.05C859.57 252.91 853.13 257.91 843.76 258.84C840.79 259.14 837.77 259.07 834.77 259.07C791.6 259.08 748.44 259.07 705.27 259.07C703.32 259.07 701.37 259.07 697.9 259.07L697.89 259.1Z" fill="url(#paint1_linear_8_2092)"/>
<path d="M121.802 668.771V484H171.388L220.712 573.254L269.515 484H317.273V668.771H279.954V533.846L227.498 627.537H212.361L159.122 533.846V668.771H121.802Z" fill="url(#paint2_linear_8_2092)"/>
<path d="M412.116 732.188C401.503 732.188 391.151 730.797 381.06 728.013C370.969 725.229 361.486 720.531 352.613 713.92L364.879 684.691C370.447 688.866 376.797 692.172 383.93 694.608C391.064 697.218 398.98 698.522 407.679 698.522C421.076 698.522 430.993 695.391 437.431 689.127C444.042 682.864 447.348 673.817 447.348 661.986V654.678C444.39 658.68 440.649 661.899 436.126 664.335C431.776 666.596 427.078 668.249 422.033 669.293C416.987 670.337 411.942 670.859 406.896 670.859C393.674 670.859 383.06 668.075 375.057 662.508C367.054 656.94 361.225 649.372 357.572 639.803C354.092 630.06 352.352 619.012 352.352 606.659V531.237H388.889V599.091C388.889 603.614 389.15 608.138 389.672 612.661C390.194 617.185 391.412 621.36 393.326 625.188C395.239 629.016 398.11 632.148 401.938 634.583C405.765 636.845 410.898 637.976 417.335 637.976C425.687 637.976 431.95 635.975 436.126 631.974C440.301 627.798 443.085 622.578 444.477 616.315C446.043 610.052 446.826 603.527 446.826 596.742V531.237H483.362V648.937C483.362 661.464 482.144 672.86 479.709 683.125C477.447 693.39 473.532 702.176 467.965 709.483C462.571 716.791 455.264 722.358 446.043 726.186C436.996 730.188 425.687 732.188 412.116 732.188Z" fill="#ffffff"/>
<defs fill="#ffffff">
<linearGradient id="paint0_linear_8_2092" x1="355.931" y1="125.996" x2="999.724" y2="194.802" gradientUnits="userSpaceOnUse" fill="#ffffff">
<stop stop-color="#ffffff" fill="#ffffff"/>
<stop offset="0.833055" stop-color="#ffffff" fill="#ffffff"/>
</linearGradient>
<linearGradient id="paint1_linear_8_2092" x1="444.165" y1="213.305" x2="901.243" y2="248.463" gradientUnits="userSpaceOnUse" fill="#ffffff">
<stop stop-color="#ffffff" fill="#ffffff"/>
<stop offset="0.833055" stop-color="#ffffff" fill="#ffffff"/>
</linearGradient>
<linearGradient id="paint2_linear_8_2092" x1="118.695" y1="484" x2="510.383" y2="538.698" gradientUnits="userSpaceOnUse" fill="#ffffff">
<stop stop-color="#ffffff" fill="#ffffff"/>
<stop offset="0.833055" stop-color="#ffffff" fill="#ffffff"/>
</linearGradient>
<linearGradient id="paint3_linear_8_2092" x1="118.695" y1="484" x2="510.383" y2="538.698" gradientUnits="userSpaceOnUse" fill="#ffffff">
<stop stop-color="#ffffff" fill="#ffffff"/>
<stop offset="0.833055" stop-color="#ffffff" fill="#ffffff"/>
</linearGradient>
</defs>
</svg>